<svg width="1280" height="720" xmlns="http://www.w3.org/2000/svg" xmlns:xlink="http://www.w3.org/1999/xlink" overflow="hidden"><defs><clipPath id="clip0"><rect x="0" y="0" width="1280" height="720"/></clipPath></defs><g clip-path="url(#clip0)"><rect x="0" y="0" width="1280" height="720" fill="#FFFFFF"/><path d="M984.981-1437 1281-1437 1281-5.32971 496 0 984.981-1437Z" fill="#FEE2DC" fill-rule="evenodd"/><path d="M360.166 0 795 0 795 727 0 727 360.166 0Z" fill="#FEE2DC" fill-rule="evenodd" transform="matrix(1 0 0 -1 486 726)"/><rect x="0" y="0" width="52" height="1" fill="#EBEBEB" transform="matrix(-1 0 0 1 539 616)"/><rect x="0" y="0" width="14" height="1" fill="#EBEBEB" transform="matrix(-1 0 0 1 689 621)"/><rect x="0" y="0" width="31" height="1" fill="#EBEBEB" transform="matrix(-1 0 0 1 572 602)"/><rect x="0" y="0" width="69" height="1" fill="#EBEBEB" transform="matrix(-1 0 0 1 1116 604)"/><rect x="0" y="0" width="11" height="1" fill="#EBEBEB" transform="matrix(-1 0 0 1 1034 604)"/><rect x="0" y="0" width="148" height="1" fill="#EBEBEB" transform="matrix(-1 0 0 1 991 611)"/><path d="M313.918 448C9.08191 448 9.08191 448 9.08191 448 3.94866 448 0 444.039 0 438.889 0 9.11052 0 9.11052 0 9.11052 0 3.9611 3.94866 0 9.08191 0 313.918 0 313.918 0 313.918 0 319.051 0 323 3.9611 323 9.11052 323 438.889 323 438.889 323 438.889 323 444.039 319.051 448 313.918 448M9.08191 0.39611C4.34352 0.39611 0.394866 4.35721 0.394866 9.11052 0.394866 438.889 0.394866 438.889 0.394866 438.889 0.394866 443.643 4.34352 447.604 9.08191 447.604 313.918 447.604 313.918 447.604 313.918 447.604 318.656 447.604 322.605 443.643 322.605 438.889 322.605 9.11052 322.605 9.11052 322.605 9.11052 322.605 4.35721 318.656 0.39611 313.918 0.39611 9.08191 0.39611 9.08191 0.39611 9.08191 0.39611" fill="#EBEBEB" fill-rule="evenodd" transform="matrix(-1 0 0 1 1138 72)"/><path d="M313.918 448C9.08191 448 9.08191 448 9.08191 448 3.94866 448 0 444.039 0 438.889 0 9.11052 0 9.11052 0 9.11052 0 3.9611 3.94866 0 9.08191 0 313.918 0 313.918 0 313.918 0 319.051 0 323 3.9611 323 9.11052 323 438.889 323 438.889 323 438.889 323 444.039 319.051 448 313.918 448M9.08191 0.39611C4.34352 0.39611 0.394866 4.35721 0.394866 9.11052 0.394866 438.889 0.394866 438.889 0.394866 438.889 0.394866 443.643 4.34352 447.604 9.08191 447.604 313.918 447.604 313.918 447.604 313.918 447.604 318.656 447.604 322.605 443.643 322.605 438.889 322.605 9.11052 322.605 9.11052 322.605 9.11052 322.605 4.35721 318.656 0.39611 313.918 0.39611 9.08191 0.39611 9.08191 0.39611 9.08191 0.39611" fill="#EBEBEB" fill-rule="evenodd" transform="matrix(-1 0 0 1 796 72)"/><rect x="0" y="0" width="791" height="1" fill="#EBEBEB" transform="matrix(-1 0 0 1 1199 594)"/><path d="M55.8416 54C51.0891 54 46.3366 53.6 41.1881 53.6 32.8713 53.2 23.7624 52 15.8416 48.4 7.12871 44 1.18812 36.4 0 28.4 1.58416 28 1.58416 28 1.58416 28 2.37624 35.6 8.31683 42.8 16.6337 46.8 24.1584 50.4 32.8713 51.6 41.1881 52 83.5644 54 125.545 46.4 175.049 33.6 182.178 31.6 189.703 30 196.832 28 232.871 18.4 270.099 8.8 307.723 4.8 359.604 0 403.96 7.6 440 27.6 439.208 28.8 439.208 28.8 439.208 28.8 403.564 8.8 359.604 1.6 307.723 6.4 270.495 10.4 233.267 20 197.228 29.6 190.099 31.2 182.574 33.2 175.446 35.2 131.485 46.4 93.4653 54 55.8416 54" fill="#E8505B" fill-rule="evenodd" transform="matrix(-1 0 0 1 1023 214)"/><path d="M55.8416 53.6029C51.0891 53.6029 46.3366 53.6029 41.1881 53.2059 32.8713 52.8088 23.7624 52.0147 15.8416 48.0441 7.12871 44.0735 1.18812 36.5294 0 28.5882 1.58416 28.1912 1.58416 28.1912 1.58416 28.1912 2.37624 35.7353 8.31683 42.8824 16.6337 46.8529 24.1584 50.4265 32.8713 51.2206 41.1881 51.6176 83.5644 54 125.545 46.0588 175.049 33.75 182.178 31.7647 189.703 29.7794 196.832 27.7941 232.871 18.6618 270.099 8.73529 307.723 5.16176 359.604 0 403.96 7.54412 440 27.3971 439.208 28.9853 439.208 28.9853 439.208 28.9853 403.564 9.13235 359.604 1.58824 307.723 6.75 270.495 10.3235 233.267 20.25 197.228 29.3824 190.099 31.3676 182.574 33.3529 175.446 35.3382 131.485 46.4559 93.4653 53.6029 55.8416 53.6029" fill="#E8505B" fill-rule="evenodd" transform="matrix(-1 0 0 1 1023 227)"/><path d="M55.8416 53.6029C51.0891 53.6029 46.3366 53.6029 41.1881 53.2059 32.8713 52.8088 23.7624 52.0147 15.8416 48.0441 7.12871 44.0735 1.18812 36.1324 0 28.1912 1.58416 28.1912 1.58416 28.1912 1.58416 28.1912 2.37624 35.7353 8.31683 42.8824 16.6337 46.8529 24.1584 50.4265 32.8713 51.2206 41.1881 51.6176 83.5644 54 125.545 46.0588 175.049 33.3529 182.178 31.7647 189.703 29.7794 196.832 27.7941 232.871 18.6618 270.099 8.73529 307.723 5.16176 359.604 0 403.96 7.54412 440 27.3971 439.208 28.9853 439.208 28.9853 439.208 28.9853 403.564 9.13235 359.604 1.58824 307.723 6.75 270.495 10.3235 233.267 20.25 197.228 29.3824 190.099 31.3676 182.574 33.3529 175.446 34.9412 131.485 46.0588 93.4653 53.6029 55.8416 53.6029" fill="#E8505B" fill-rule="evenodd" transform="matrix(-1 0 0 1 1023 241)"/><path d="M55.8416 53.6029C51.0891 53.6029 46.3366 53.6029 41.1881 53.2059 32.8713 52.8088 23.7624 51.6176 15.8416 48.0441 7.12871 43.6765 1.18812 36.1324 0 28.1912 1.58416 27.7941 1.58416 27.7941 1.58416 27.7941 2.37624 35.3382 8.31683 42.4853 16.6337 46.4559 24.1584 50.0294 32.8713 51.2206 41.1881 51.6176 83.5644 54 125.545 46.0588 175.049 33.3529 182.178 31.3676 189.703 29.7794 196.832 27.7941 232.871 18.2647 270.099 8.73529 307.723 5.16176 359.604 0 403.96 7.54412 440 27.3971 439.208 28.5882 439.208 28.5882 439.208 28.5882 403.564 9.13235 359.604 1.58824 307.723 6.75 270.495 10.3235 233.267 19.8529 197.228 29.3824 190.099 31.3676 182.574 32.9559 175.446 34.9412 131.485 46.0588 93.4653 53.6029 55.8416 53.6029" fill="#E8505B" fill-rule="evenodd" transform="matrix(-1 0 0 1 1023 254)"/><path d="M55.8416 53C51.0891 53 46.3366 52.6074 41.1881 52.6074 32.8713 52.2148 23.7624 51.037 15.8416 47.5037 7.12871 43.1852 1.18812 35.7259 0 27.8741 1.58416 27.4815 1.58416 27.4815 1.58416 27.4815 2.37624 34.9407 8.31683 42.0074 16.6337 45.9333 24.1584 49.4667 32.8713 50.6444 41.1881 51.037 83.5644 53 125.545 45.5407 175.049 32.9778 182.178 31.0148 189.703 29.0518 196.832 27.4815 232.871 18.0593 270.099 8.63704 307.723 4.71111 359.604 0 403.96 7.45926 440 27.0889 439.208 28.2667 439.208 28.2667 439.208 28.2667 403.564 8.63704 359.604 1.57037 307.723 6.28148 270.495 10.2074 233.267 19.6296 197.228 29.0518 190.099 30.6222 182.574 32.5852 175.446 34.5481 131.485 45.5407 93.4653 53 55.8416 53" fill="#E8505B" fill-rule="evenodd" transform="matrix(-1 0 0 1 1023 268)"/><rect x="0" y="0" width="111" height="121" fill="#E22230" transform="matrix(-1 0 0 1 622 473)"/><rect x="0" y="0" width="78" height="121" fill="#E8505B" transform="matrix(-1 0 0 1 589 473)"/><path d="M0 26C-6.49298e-15 11.6406 11.4167 0 25.5 0 39.5833-6.62029e-15 51 11.6406 51 26 51 40.3594 39.5833 52 25.5 52 11.4167 52-9.73947e-15 40.3594 0 26Z" fill="#E22230" fill-rule="evenodd" transform="matrix(-1 0 0 1 575 526)"/><path d="M0 12.5C-3.18283e-15 5.59644 5.59644 0 12.5 0 19.4036-3.18283e-15 25 5.59644 25 12.5 25 19.4036 19.4036 25 12.5 25 5.59644 25-4.77425e-15 19.4036 0 12.5Z" fill="#E22230" fill-rule="evenodd" transform="matrix(-1 0 0 1 562 489)"/><path d="M0 7C-1.9097e-15 3.13401 3.35786 0 7.5 0 11.6421-1.78239e-15 15 3.13401 15 7 15 10.866 11.6421 14 7.5 14 3.35786 14-2.86455e-15 10.866 0 7Z" fill="#FAFAFA" fill-rule="evenodd" transform="matrix(-1 0 0 1 557 543)"/><rect x="0" y="0" width="111" height="120" fill="#E22230" transform="matrix(-1 0 0 1 1083 474)"/><rect x="0" y="0" width="97" height="120" fill="#E8505B" transform="matrix(-1 0 0 1 1103 474)"/><rect x="0" y="0" width="89" height="19" fill="#FAFAFA" transform="matrix(-1 0 0 1 1099 477)"/><rect x="0" y="0" width="89" height="91" fill="#E22230" transform="matrix(-1 0 0 1 1099 499)"/><path d="M0 5C-1.27313e-15 2.23858 2.23858 0 5 0 7.76142-1.27313e-15 10 2.23858 10 5 10 7.76142 7.76142 10 5 10 2.23858 10-1.9097e-15 7.76142 0 5Z" fill="#E22230" fill-rule="evenodd" transform="matrix(-1 0 0 1 1093 482)"/><path d="M0 5C-1.27313e-15 2.23858 2.23858 0 5 0 7.76142-1.27313e-15 10 2.23858 10 5 10 7.76142 7.76142 10 5 10 2.23858 10-1.9097e-15 7.76142 0 5Z" fill="#E22230" fill-rule="evenodd" transform="matrix(-1 0 0 1 1044 482)"/><path d="M0 2.5C-6.36567e-16 1.11929 1.11929 0 2.5 0 3.88071 -6.36567e-16 5 1.11929 5 2.5 5 3.88071 3.88071 5 2.5 5 1.11929 5 -9.5485e-16 3.88071 0 2.5Z" fill="#E22230" fill-rule="evenodd" transform="matrix(-1 0 0 1 1079 484)"/><path d="M0 2.5C-6.36567e-16 1.11929 1.11929 0 2.5 0 3.88071 -6.36567e-16 5 1.11929 5 2.5 5 3.88071 3.88071 5 2.5 5 1.11929 5 -9.5485e-16 3.88071 0 2.5Z" fill="#E22230" fill-rule="evenodd" transform="matrix(-1 0 0 1 1066 484)"/><path d="M0 2.5C-5.09253e-16 1.11929 0.89543 0 2 0 3.10457 -6.36567e-16 4 1.11929 4 2.5 4 3.88071 3.10457 5 2 5 0.89543 5 -7.6388e-16 3.88071 0 2.5Z" fill="#E22230" fill-rule="evenodd" transform="matrix(-1 0 0 1 1053 484)"/><path d="M0 5C-1.27313e-15 2.23858 2.23858 0 5 0 7.76142-1.27313e-15 10 2.23858 10 5 10 7.76142 7.76142 10 5 10 2.23858 10-1.9097e-15 7.76142 0 5Z" fill="#E22230" fill-rule="evenodd" transform="matrix(-1 0 0 1 1028 482)"/><rect x="0" y="0" width="27" height="8" fill="#FAFAFA" transform="matrix(-1 0 0 1 1068 539)"/><path d="M118.048 248C80.4155 248 57.4396 243.642 56.2512 236.115 55.8551 233.342 58.2319 230.965 62.5894 229.38 90.3188 220.268 59.8164 123.604 59.4203 122.811 55.8551 111.323 50.7053 109.738 45.9517 109.342 39.6135 109.342 35.256 108.946 31.2947 108.946 22.5797 108.55 18.2222 108.55 9.50725 108.946 7.13043 109.342 5.94203 109.738 4.75362 111.323 3.16908 114.492 5.14976 120.434 5.94203 122.811 6.33816 123.208 5.94203 124 5.54589 124.396 4.75362 124.396 3.96135 124.396 3.96135 123.604 3.56522 123.208 0 114.888 2.77295 110.134 3.96135 108.153 6.33816 106.965 9.11111 106.569 18.2222 106.173 22.9758 106.173 31.2947 106.569 35.256 106.569 39.6135 106.965 45.9517 106.965 51.4976 107.361 57.8357 108.946 61.7971 122.019 62.9855 125.981 93.4879 221.853 63.3816 231.757 60.2126 232.946 58.2319 234.53 58.628 235.719 59.0242 239.284 72.4928 246.019 119.237 245.623 127.159 245.623 134.29 245.227 140.628 244.435 147.758 243.642 153.7 239.68 157.266 233.342 161.227 227.003 161.623 219.476 158.85 212.741 147.758 186.198 127.952 133.904 122.406 83.1949 114.087 11.0927 144.589 0.396166 146.174 0 146.57 0 147.362 0.396166 147.362 0.792332 147.758 1.58466 147.362 1.98083 146.57 2.377 146.57 2.377 116.464 13.0735 124.783 83.1949 130.329 133.508 149.739 185.406 160.831 211.949 164 219.08 163.604 227.399 159.643 234.53 155.681 241.661 148.551 246.019 140.628 246.811 134.686 247.604 127.556 248 119.237 248 118.841 248 118.444 248 118.048 248" fill="#83373E" fill-rule="evenodd" transform="matrix(-1 0 0 1 1056 364)"/><path d="M0 18C-7.81704e-14 8.05887 137.449 0 307 0 476.551-4.58328e-15 614 8.05887 614 18 614 27.9411 476.551 36 307 36 137.449 36-1.17256e-13 27.9411 0 18Z" fill="#E8505B" fill-rule="evenodd" transform="matrix(-1 0 0 1 1110 611)"/><path d="M31 14.8C31 13.2 30.5974 12 29.7922 10.8 28.1818 8.8 26.1688 7.2 23.7532 6.8 21.3377 6 18.9221 4 17.7143 1.6 17.7143 0.8 17.7143 0.8 17.7143 0.8 17.7143 0.4 17.3117 0 16.9091 0 16.5065 0 16.5065 0.4 16.5065 0.8 16.9091 39.2 16.9091 39.2 16.9091 39.2 16.9091 39.2 16.9091 39.2 16.5065 38.8 16.5065 38.8 16.5065 38.8 16.5065 38.8 16.1039 38.8 16.1039 38.8 15.7013 38.8 12.8831 37.6 6.84416 36.8 2.81818 42.8 1.20779 44.8 0.805195 46.8 0.402597 48 0.402597 48.4 0.402597 48.4 0.402597 48.8 0 52.4 2.81818 53.6 2.81818 53.6 2.81818 53.6 10.4675 56 14.8961 50.8 16.5065 48.8 17.3117 46.8 17.7143 45.2 17.7143 45.2 17.7143 45.2 17.7143 45.2 18.1169 44 18.5195 43.2 18.5195 42 17.7143 14.8 17.7143 14.8 17.7143 14.8 19.3247 16.8 21.3377 18.4 23.7532 19.2 26.5714 19.6 28.987 21.6 30.1948 24.4 30.1948 24.8 30.5974 24.8 30.5974 24.8 30.5974 24.8 30.5974 24.8 30.5974 24.8 31 24.8 31 24.4 31 24.4 31 14.8 31 14.8 31 14.8" fill="#407BFF" fill-rule="evenodd" transform="matrix(-1 0 0 1 688 200)"/><path d="M6.85714 54.4113C6.85714 55.6028 6.85714 55.6028 6.85714 55.6028 7.2381 55.6028 7.2381 56 7.61905 56 8 56 8.38095 55.6028 8 55.2057 1.90476 17.4752 1.90476 17.4752 1.90476 17.4752 1.90476 17.4752 2.28571 17.4752 2.28571 17.4752 2.66667 17.8723 2.66667 17.8723 2.66667 17.8723 2.66667 17.8723 3.04762 17.8723 3.04762 17.8723 6.09524 18.2695 11.8095 18.2695 14.8571 11.9149 15.619 9.53191 16 7.94326 16 6.35461 16 5.95745 16 5.95745 16 5.56028 15.619 1.98582 12.9524 1.19149 12.9524 1.19149 12.9524 1.19149 5.71429 0 2.28571 5.95745 1.14286 7.94326 0.380952 10.3262 0.380952 11.9149 0.380952 11.9149 0.380952 11.9149 0.380952 11.9149 0 12.7092 0 13.9007 0.380952 15.0922 4.57143 41.7021 4.57143 41.7021 4.57143 41.7021 6.85714 54.4113 6.85714 54.4113 6.85714 54.4113" fill="#407BFF" fill-rule="evenodd" transform="matrix(-1 0 0 1 888 258)"/><path d="M32 15.036C32 13.8489 31.6049 12.2662 31.2099 11.0791 29.6296 9.10072 28.0494 7.51799 25.679 7.1223 22.9136 5.93525 20.9383 3.95683 19.7531 1.58273 19.7531 0.791367 19.7531 0.791367 19.7531 0.791367 19.7531 0.395683 19.358 0 19.358 0 18.963 0 18.5679 0.395683 18.5679 0.395683 16.9877 38.777 16.9877 38.777 16.9877 38.777 16.9877 38.3813 16.9877 38.3813 16.5926 38.3813 16.5926 38.3813 16.5926 38.3813 16.5926 38.3813 16.5926 38.3813 16.1975 38.3813 16.1975 37.9856 13.037 37.1942 7.11111 35.6115 2.76543 41.5468 1.58025 43.5252 0.790123 45.1079 0.395062 46.6906 0.395062 46.6906 0.395062 47.0863 0.395062 47.0863 0 50.6475 2.37037 52.2302 2.37037 52.2302 2.37037 52.2302 9.87654 55 14.6173 49.8561 16.1975 48.2734 16.9877 46.295 17.3827 44.3165 17.3827 44.3165 17.3827 44.3165 17.3827 44.3165 18.1728 43.5252 18.1728 42.7338 18.1728 41.5468 18.5679 30.0719 18.5679 30.0719 18.5679 30.0719 19.7531 31.6547 21.7284 32.8417 23.7037 33.6331 25.679 34.4245 27.6543 35.2158 29.6296 39.5683 29.6296 39.5683 30.0247 39.964 30.0247 39.964 30.0247 39.964 30.0247 39.964 30.0247 39.964 30.4198 39.964 30.4198 39.5683 30.4198 39.5683 30.8148 33.2374 30.8148 33.2374 30.8148 33.2374 30.8148 31.6547 30.4198 30.4676 30.0247 29.2806 28.4444 26.9065 26.4691 25.3237 24.4938 24.9281 22.1235 24.1367 20.1481 22.554 18.963 20.5755 19.358 14.6403 19.358 14.6403 19.358 14.6403 20.5432 16.6187 22.5185 18.2014 24.8889 18.9928 27.6543 19.7842 29.6296 22.1583 30.8148 24.9281 30.8148 24.9281 31.2099 24.9281 31.2099 24.9281 31.2099 24.9281 31.2099 24.9281 31.2099 24.9281 31.6049 24.9281 31.6049 24.9281 31.6049 24.5324 32 15.036 32 15.036 32 15.036" fill="#407BFF" fill-rule="evenodd" transform="matrix(-1 0 0 1 1026 264)"/><path d="M45.6068 37.8758C45.6068 37.8758 45.6068 37.8758 45.6068 37.8758 42.4615 11.9608 42.4615 11.9608 42.4615 11.9608 40.8889 0.797386 40.8889 0.797386 40.8889 0.797386 40.8889 0 40.8889 0 40.8889 0 10.2222 3.98693 10.2222 3.98693 10.2222 3.98693 10.2222 4.38562 10.2222 4.38562 10.2222 4.38562 11.7949 15.9477 11.7949 15.9477 11.7949 15.9477 14.9402 43.4575 14.9402 43.4575 14.9402 43.4575 14.9402 43.4575 14.547 43.4575 14.1538 43.4575 12.9744 43.0588 11.4017 42.6601 9.82906 43.0588 9.4359 43.0588 8.64957 43.0588 8.25641 43.4575 7.47009 43.4575 7.07692 43.8562 6.2906 43.8562 4.71795 44.6536 3.1453 46.2484 1.96581 48.6405 0.393162 51.4314 0 53.4248 0.393162 55.0196 0.393162 58.2092 3.1453 59.4052 3.1453 59.4052 3.1453 59.4052 10.6154 61 14.547 55.4183 17.2991 51.0327 16.906 46.6471 16.5128 45.0523 16.5128 45.0523 16.5128 45.0523 16.5128 45.0523 12.9744 15.9477 12.9744 15.9477 12.9744 15.9477 41.2821 12.3595 41.2821 12.3595 41.2821 12.3595 44.0342 36.281 44.0342 36.281 44.0342 36.281 41.6752 35.8824 35.7778 34.6863 31.8462 39.8693 31.8462 40.268 31.453 40.268 31.453 40.6667 31.0598 41.0654 31.0598 41.0654 31.0598 41.4641 30.6667 42.2614 30.2735 43.0588 29.8803 43.4575 28.7009 47.4444 29.4872 49.4379 30.2735 51.0327 30.6667 51.0327 31.0598 51.4314 31.0598 51.8301 31.8462 52.2288 32.2393 52.2288 32.2393 52.2288 32.2393 52.2288 38.1367 53.4248 42.4615 49.4379 42.4615 49.4379 42.4615 49.4379 42.4615 49.4379 42.8547 49.0392 43.2479 48.6405 43.641 48.2418 45.2137 45.451 46 43.0588 46 40.6667 46 40.6667 46 40.6667 46 40.6667 46 39.4706 45.6068 38.6732 45.6068 37.8758" fill="#407BFF" fill-rule="evenodd" transform="matrix(-1 0 0 1 964 235)"/><path d="M49.758 46.2378C49.758 46.2378 49.758 46.2378 49.758 46.2378 56.4713 26.3077 56.4713 26.3077 56.4713 26.3077 56.8662 25.1119 56.8662 25.1119 56.8662 25.1119 56.8662 25.1119 56.8662 25.1119 56.8662 25.1119 58.051 21.5245 58.051 21.5245 58.051 21.5245 61.6051 10.7622 61.6051 10.7622 61.6051 10.7622 62 9.96503 62 9.96503 62 9.96503 32.3822 0 32.3822 0 32.3822 0 32.3822 0.398601 32.3822 0.398601 32.3822 0.398601 28.4331 11.1608 28.4331 11.1608 28.4331 11.1608 19.7452 37.4685 19.7452 37.4685 19.7452 37.4685 19.3503 37.4685 19.3503 37.0699 18.9554 37.0699 18.9554 37.0699 18.9554 37.0699 18.9554 37.0699 18.1656 36.2727 16.586 35.4755 15.0064 34.6783 14.6115 34.6783 14.2166 34.6783 13.4268 34.2797 13.0318 34.2797 12.242 34.2797 11.4522 34.2797 9.87261 34.2797 7.50318 34.6783 5.52866 36.2727 3.15924 38.2657 1.97452 39.8601 1.18471 41.0559 0 44.6434 1.97452 46.6364 1.97452 46.6364 1.97452 46.6364 7.89809 51.4196 14.2166 47.8322 18.5605 45.4406 19.7452 41.4545 20.1401 39.4615 20.1401 39.4615 20.1401 39.4615 20.1401 39.4615 28.0382 16.7413 28.0382 16.7413 28.0382 16.7413 54.8917 26.3077 54.8917 26.3077 54.8917 26.3077 48.9682 44.2448 48.9682 44.2448 48.9682 44.2448 46.9936 42.2517 41.8599 39.0629 36.3312 41.8531 36.3312 41.8531 35.9363 42.2517 35.5414 42.2517 35.5414 42.6503 35.1465 42.6503 34.7516 42.6503 34.3567 43.4476 33.5669 43.8462 33.172 44.2448 30.4076 47.035 30.0127 49.4266 30.4076 51.021 30.4076 51.4196 30.4076 51.8182 30.8025 52.2168 30.8025 52.6154 31.1975 53.014 31.1975 53.014 31.1975 53.014 36.3312 57 41.8599 55.007 41.8599 55.007 41.8599 55.007 41.8599 55.007 42.2548 55.007 43.0446 54.6084 43.4395 54.6084 46.2038 53.014 47.7834 50.6224 48.5732 49.028 48.5732 49.028 48.5732 49.028 48.5732 49.028 48.9682 47.8322 49.3631 47.035 49.758 46.2378M28.4331 15.1469C29.6178 11.5594 29.6178 11.5594 29.6178 11.5594 56.8662 21.1259 56.8662 21.1259 56.8662 21.1259 55.2866 24.7133 55.2866 24.7133 55.2866 24.7133 28.4331 15.1469 28.4331 15.1469 28.4331 15.1469" fill="#407BFF" fill-rule="evenodd" transform="matrix(-1 0 0 1 644 235)"/><path d="M16.1842 0C16.1842 0 16.1842 0 16.1842 0 15.7895 0 15.7895 0.4 15.7895 0.8 16.1842 39.2 16.1842 39.2 16.1842 39.2 16.1842 39.2 16.1842 39.2 16.1842 39.2 16.1842 39.2 16.1842 39.2 15.7895 38.8 15.7895 38.8 15.7895 38.8 15.7895 38.8 15.3947 38.8 15.3947 38.8 15 38.8 14.2105 38.4 12.6316 38 10.6579 38 7.89474 38 4.73684 38.8 2.36842 42.8 0.789474 44.8 0.394737 46.8 0 48 0 48.4 0 48.4 0 48.8 0 48.8 0 48.8 0 49.2 0 52.4 2.36842 53.6 2.36842 53.6 2.36842 53.6 3.94737 54 6.31579 54 8.68421 54 11.8421 53.6 14.2105 50.8 15.7895 48.8 16.5789 46.8 16.9737 45.2 16.9737 45.2 16.9737 45.2 16.9737 45.2 17.3684 44.4 17.7632 43.2 17.7632 42.4 17.7632 42.4 17.7632 42 17.7632 42 16.9737 14.8 16.9737 14.8 16.9737 14.8 16.9737 14.8 16.9737 14.8 16.9737 14.8 18.5526 16.8 20.5263 18.4 22.8947 19.2 25.6579 19.6 28.0263 21.6 29.2105 24.4 29.2105 24.8 29.6053 24.8 29.6053 24.8 29.6053 24.8 29.6053 24.8 29.6053 24.8 29.6053 24.8 29.6053 24.8 29.6053 24.8 30 24.8 30 24.4 30 24.4 30 14.8 30 14.8 30 14.8 30 14.8 30 14.8 30 14.8 30 14.8 30 14.4 30 14.4 30 13.2 29.6053 12 28.8158 10.8 27.2368 8.8 25.2632 7.2 22.8947 6.8 20.5263 6 18.1579 4 16.9737 1.6 16.9737 0.8 16.9737 0.8 16.9737 0.8 16.9737 0.4 16.5789 0 16.1842 0" fill="#E22230" fill-rule="evenodd" transform="matrix(-1 0 0 1 687 200)"/><path d="M11.4286 0C9.14286 0 4.57143 0.394231 2.28571 4.73077 1.14286 6.70192 0.380952 9.06731 0.380952 10.6442 0.380952 10.6442 0.380952 10.6442 0.380952 10.6442 0.380952 11.0385 0 11.8269 0 12.2212 0 12.6154 0.380952 13.4038 0.380952 13.7981 4.57143 40.2115 4.57143 40.2115 4.57143 40.2115 4.95238 41 4.95238 41 4.95238 41 5.33333 41 5.71429 41 6.09524 41 5.33333 37.4519 5.33333 37.4519 5.33333 37.4519 5.33333 35.875 5.33333 35.875 5.33333 35.875 3.42857 24.8365 3.42857 24.8365 3.42857 24.8365 3.04762 23.2596 3.04762 23.2596 3.04762 23.2596 1.90476 16.1635 1.90476 16.1635 1.90476 16.1635 1.90476 16.1635 1.90476 16.1635 1.90476 16.1635 1.90476 16.1635 2.28571 16.1635 2.28571 16.1635 2.66667 16.5577 2.66667 16.5577 2.66667 16.5577 2.66667 16.5577 3.04762 16.5577 3.04762 16.5577 3.80952 16.5577 4.57143 16.5577 5.33333 16.5577 8.7619 16.5577 12.5714 15.7692 14.8571 10.6442 15.619 8.27885 16 6.70192 16 5.125 16 5.125 16 5.125 16 5.125 16 5.125 16 5.125 16 5.125 16 5.125 16 5.125 16 5.125 16 5.125 16 5.125 16 5.125 16 4.73077 16 4.73077 16 4.33654 15.619 0.788462 12.9524 0 12.9524 0 12.9524 0 12.5714 0 11.4286 0" fill="#E22230" fill-rule="evenodd" transform="matrix(-1 0 0 1 888 260)"/><path d="M19.2 0C18.8 0 18.4 0.395522 18.4 0.395522 18 8.70149 18 8.70149 18 8.70149 18 10.6791 18 10.6791 18 10.6791 17.6 21.7537 17.6 21.7537 17.6 21.7537 17.6 23.7313 17.6 23.7313 17.6 23.7313 17.2 34.806 17.2 34.806 17.2 34.806 17.2 36.7836 17.2 36.7836 17.2 36.7836 16.8 38.7612 16.8 38.7612 16.8 38.7612 16.8 38.3657 16.8 38.3657 16.4 38.3657 16.4 38.3657 16.4 38.3657 16.4 38.3657 16.4 38.3657 16 38.3657 16 37.9701 14.4 37.5746 12.8 37.1791 10.8 37.1791 9.6 37.1791 8 37.1791 6.8 37.9701 6.4 37.9701 6 38.3657 5.6 38.7612 4.4 39.1567 3.6 39.9478 2.4 41.5299 1.2 43.5075 0.4 45.0896 0 46.6716 0 46.6716 0 47.0672 0 47.0672 0 47.4627 0 47.8582 0 47.8582 0 51.0224 2 52.209 2 52.209 2 52.209 4 53 6.8 53 9.2 53 12 52.209 14.4 49.8358 16 48.2537 16.8 46.2761 17.2 44.2985 17.2 44.2985 17.2 44.2985 17.2 44.2985 18 43.5075 18 42.7164 18 41.5299 18 41.5299 18 41.5299 18 41.5299 18 41.5299 18 41.5299 18 41.5299 18 41.5299 18 41.5299 18 41.5299 18.4 30.0597 18.4 30.0597 18.4 30.0597 19.6 31.6418 21.6 32.8284 23.6 33.6194 25.6 34.4104 27.6 35.2015 29.6 39.5522 29.6 39.5522 30 39.9478 30 39.9478 30 39.9478 30 39.9478 30 39.9478 30.4 39.9478 30.4 39.5522 30.4 39.5522 30.8 33.2239 30.8 33.2239 30.8 33.2239 30.8 33.2239 30.8 32.8284 30.8 32.8284 30.8 31.6418 30.4 30.0597 30 29.2687 28.4 26.8955 26.4 25.3134 24.4 24.9179 22 24.1269 20 22.5448 18.8 20.5672 18.8 20.5672 18.8 20.5672 18.8 20.5672 18.8 20.5672 18.8 20.5672 18.8 20.5672 19.2 14.6343 19.2 14.6343 19.2 14.6343 20.4 16.6119 22.4 18.194 24.8 18.9851 27.6 19.7761 29.6 22.1493 30.8 24.9179 30.8 24.9179 31.2 24.9179 31.2 24.9179 31.2 24.9179 31.2 24.9179 31.2 24.9179 31.6 24.9179 31.6 24.9179 31.6 24.5224 32 15.0299 32 15.0299 32 15.0299 32 15.0299 32 15.0299 32 14.6343 32 13.4478 31.6 12.2612 31.2 11.0746 29.6 9.09702 28 7.51493 25.6 7.1194 22.8 5.93284 20.8 3.95522 19.6 1.58209 19.6 1.58209 19.6 1.58209 19.6 1.58209 19.6 1.58209 19.6 1.58209 19.6 1.58209 19.6 0.791045 19.6 0.791045 19.6 0.791045 19.6 0.395522 19.2 0 19.2 0 19.2 0 19.2 0 19.2 0" fill="#E22230" fill-rule="evenodd" transform="matrix(-1 0 0 1 1026 264)"/><path d="M40.8448 0C9.91379 4 9.91379 4 9.91379 4 9.91379 4.4 9.91379 4.4 9.91379 4.4 11.5 16 11.5 16 11.5 16 14.6724 43.6 14.6724 43.6 14.6724 43.6 14.6724 43.6 14.6724 43.6 14.6724 43.6 14.6724 43.6 14.2759 43.6 13.8793 43.6 13.0862 43.2 11.8966 43.2 10.7069 43.2 10.3103 43.2 9.91379 43.2 9.51724 43.2 9.12069 43.2 8.32759 43.2 7.93103 43.6 7.13793 43.6 6.74138 44 5.94828 44 4.36207 44.8 2.77586 46.4 1.58621 48.8 0.396552 51.2 0 53.2 0 54.8 0 54.8 0 54.8 0 55.2 0 58.4 2.77586 59.6 2.77586 59.6 2.77586 59.6 3.56897 60 5.15517 60 7.53448 60 11.8966 59.2 14.2759 55.6 15.8621 52.8 16.6552 50.4 16.6552 48 16.6552 46.8 16.2586 46 16.2586 45.2 16.2586 45.2 16.2586 45.2 16.2586 45.2 16.2586 45.2 16.2586 45.2 16.2586 45.2 15.8621 43.6 15.8621 43.6 15.8621 43.6 14.6724 31.6 14.6724 31.6 14.6724 31.6 14.2759 30 14.2759 30 14.2759 30 12.6897 16 12.6897 16 12.6897 16 41.2414 12.4 41.2414 12.4 41.2414 12.4 44.0172 36.4 44.0172 36.4 44.0172 36.4 44.0172 36.4 44.0172 36.4 44.0172 36.4 43.2241 36.4 41.6379 36 40.0517 36 37.2759 36 34.1034 36.8 31.7241 40 31.7241 40.4 31.3276 40.4 31.3276 40.8 30.931 41.2 30.931 41.2 30.931 41.6 30.5345 42.4 30.1379 43.2 29.7414 43.6 29.3448 45.2 28.9483 46.4 28.9483 47.6 28.9483 49.2 29.7414 50.4 30.1379 51.2 30.5345 51.2 30.931 51.6 30.931 52 31.7241 52.4 32.1207 52.4 32.1207 52.4 32.1207 52.4 32.9138 52.8 34.5 52.8 36.4828 52.8 40.0517 52 42.431 49.6 42.431 49.6 42.431 49.6 42.431 49.6 42.8276 49.2 43.2241 48.8 43.6207 48.4 45.2069 45.6 46 43.2 46 41.2 46 41.2 46 40.8 46 40.8 46 40.8 46 40.8 46 40.8 46 40.8 46 40.4 46 40.4 46 39.6 45.6034 38.8 45.6034 38 45.6034 38 45.6034 38 45.6034 38 44.4138 28.8 44.4138 28.8 44.4138 28.8 44.0172 27.2 44.0172 27.2 44.0172 27.2 42.431 12 42.431 12 42.431 12 40.8448 0.8 40.8448 0.8 40.8448 0.8 40.8448 0 40.8448 0 40.8448 0" fill="#E22230" fill-rule="evenodd" transform="matrix(-1 0 0 1 964 235)"/><path d="M27.5484 15.2C27.5484 15.2 27.5484 15.2 27.5484 15.2 28.729 11.6 28.729 11.6 28.729 11.6 55.8839 21.2 55.8839 21.2 55.8839 21.2 54.3097 24.8 54.3097 24.8 54.3097 24.8 27.5484 15.2 27.5484 15.2 27.5484 15.2M31.4839 0C31.4839 0.4 31.4839 0.4 31.4839 0.4 29.5161 6 29.5161 6 29.5161 6 29.1226 7.6 29.1226 7.6 29.1226 7.6 27.5484 11.2 27.5484 11.2 27.5484 11.2 25.1871 18 25.1871 18 25.1871 18 24.7935 19.6 24.7935 19.6 24.7935 19.6 21.2516 30.4 21.2516 30.4 21.2516 30.4 20.8581 32 20.8581 32 20.8581 32 18.8903 37.6 18.8903 37.6 18.8903 37.6 18.4968 37.6 18.4968 37.2 18.1032 37.2 18.1032 37.2 18.1032 37.2 18.1032 37.2 17.3161 36.4 15.7419 35.6 14.1677 34.8 13.7742 34.8 13.3806 34.8 12.5935 34.4 12.2 34.4 11.4129 34.4 10.6258 34.4 10.6258 34.4 10.6258 34.4 10.6258 34.4 9.05161 34.4 6.69032 34.8 4.72258 36.4 3.54194 37.6 2.36129 38.4 1.57419 39.6 1.18065 40 0.787097 40.4 0.787097 40.8 0.787097 41.2 0.787097 41.2 0.393548 41.2 0 42.4 0 42.8 0 43.6 0 45.6 1.18065 46.8 1.18065 46.8 1.18065 46.8 4.32903 49.2 8.65806 49.2 10.2323 49.2 11.8065 49.2 13.3806 48 17.7097 45.6 18.8903 41.6 19.2839 39.6 19.2839 39.6 19.2839 39.6 19.2839 39.6 27.1548 16.8 27.1548 16.8 27.1548 16.8 53.9161 26.4 53.9161 26.4 53.9161 26.4 53.129 29.2 53.129 29.2 53.129 29.2 52.3419 30.8 52.3419 30.8 52.3419 30.8 49.1936 40.8 49.1936 40.8 49.1936 40.8 48.8 42.4 48.8 42.4 48.8 42.4 48.0129 44.4 48.0129 44.4 48.0129 44.4 46.4387 43.2 43.6839 40.8 40.1419 40.8 38.5677 40.8 36.9935 41.2 35.4194 42 35.4194 42 35.0258 42.4 34.6323 42.4 34.6323 42.8 34.2387 42.8 33.8452 42.8 33.4516 43.6 32.6645 44 32.271 44.4 31.4839 45.2 30.6968 46 30.3032 46.8 29.9097 47.2 29.9097 47.6 29.5161 48.4 29.5161 48.8 29.1226 49.6 29.1226 50 29.1226 50.4 29.5161 50.8 29.5161 51.2 29.5161 51.6 29.5161 52 29.9097 52.4 29.9097 52.8 30.3032 53.2 30.3032 53.2 30.3032 53.2 33.8452 56 37.7806 56 38.9613 56 39.7484 55.6 40.929 55.2 40.929 55.2 40.929 55.2 40.929 55.2 41.3226 55.2 42.1097 54.8 42.5032 54.8 45.2581 53.2 46.8323 50.8 47.6194 49.2 47.6194 49.2 47.6194 49.2 47.6194 49.2 48.0129 48 48.4064 47.2 48.8 46.4 48.8 46.4 48.8 46.4 48.8 46.4 55.4903 26.4 55.4903 26.4 55.4903 26.4 55.8839 25.2 55.8839 25.2 55.8839 25.2 55.8839 25.2 55.8839 25.2 55.8839 25.2 57.0645 21.6 57.0645 21.6 57.0645 21.6 60.6064 10.8 60.6064 10.8 60.6064 10.8 61 10 61 10 61 10 31.4839 0 31.4839 0 31.4839 0" fill="#E22230" fill-rule="evenodd" transform="matrix(-1 0 0 1 643 235)"/><path d="M0 23C0 10.3103 18.4806 0 40.5 0 62.9126 0 81 10.3103 81 23 0 23 0 23 0 23" fill="#407BFF" fill-rule="evenodd" transform="matrix(-1 0 0 1 844 422)"/><path d="M0 23C0 10.3103 18.4806 0 40.5 0 62.9126 0 81 10.3103 81 23 0 23 0 23 0 23" fill="#407BFF" fill-rule="evenodd" transform="matrix(-1 0 0 1 844 422)"/><path d="M41.2864 0C31.8495 5.54717 18.0874 8.71698 4.32524 11.0943 1.57282 13.8679 0 17.434 0 21 81 21 81 21 81 21 81 17.0377 79.4272 13.8679 76.6748 10.6981 63.699 8.32075 50.3301 5.15094 41.2864 0" fill="#83373E" fill-rule="evenodd" transform="matrix(-1 0 0 1 844 424)"/><rect x="0" y="0" width="87" height="26" fill="#407BFF" transform="matrix(-1 0 0 1 847 445)"/><path d="M87 0 84.6667 0 3.16667 0 0 0 0 26 2.66667 26 9.83333 26 24.5 26 31.1667 26 57 26 64 26 77.5 26 84.6667 26 87 26 87 0Z" fill="#E8505B" fill-rule="evenodd" transform="matrix(-1 0 0 1 847 445)"/><path d="M0 0 0 128 4.09302 128 8 0 0 0Z" fill="#263238" fill-rule="evenodd" transform="matrix(-1 0 0 1 845 471)"/><path d="M7 0 7 128 3.09302 128 0 0 7 0Z" fill="#263238" fill-rule="evenodd" transform="matrix(-1 0 0 1 770 471)"/><path d="M7 0 7 128 3.5 128 0 0 7 0Z" fill="#263238" fill-rule="evenodd" transform="matrix(-1 0 0 1 790 471)"/><path d="M7 0 7 128 3.675 128 0 0 7 0Z" fill="#263238" fill-rule="evenodd" transform="matrix(-1 0 0 1 823 471)"/><path d="M0 0C0 9 0 9 0 9 1.81818 8.59091 3.63636 8.59091 5 8.59091 5 0.409091 5 0.409091 5 0.409091 3.63636 0.409091 1.81818 0.409091 0 0" fill="#515B60" fill-rule="evenodd" transform="matrix(-1 0 0 1 788 570)"/><path d="M7 0C0 0 0 0 0 0 2.33333 95 2.33333 95 2.33333 95 3.88889 95 5.44444 95 7 95 7 49.0833 7 49.0833 7 49.0833 7 48.6875 7 48.6875 7 48.6875 7 0 7 0 7 0" fill="#515B60" fill-rule="evenodd" transform="matrix(-1 0 0 1 790 471)"/><path d="M5 0C3.63636 0 1.81818 0 0 0 0.909091 16 0.909091 16 0.909091 16 5 16 5 16 5 16 5 11.4286 5 11.4286 5 11.4286 5 11.0476 5 11.0476 5 11.0476 5 0 5 0 5 0" fill="#515B60" fill-rule="evenodd" transform="matrix(-1 0 0 1 788 583)"/><path d="M7 0C0 0 0 0 0 0 2.88235 95 2.88235 95 2.88235 95 4.11765 95 5.35294 95 7 95 7 44.9163 7 44.9163 7 44.9163 7 44.1213 7 44.1213 7 44.1213 7 0 7 0 7 0" fill="#515B60" fill-rule="evenodd" transform="matrix(-1 0 0 1 823 471)"/><path d="M4 0C2.4 0 1.2 0 0 0 0 9 0 9 0 9 1.2 9 2.4 9 4 9 4 0 4 0 4 0" fill="#515B60" fill-rule="evenodd" transform="matrix(-1 0 0 1 820 570)"/><path d="M0 0C0.444444 16 0.444444 16 0.444444 16 4 16 4 16 4 16 4 11.3171 4 11.3171 4 11.3171 4 10.9268 4 10.9268 4 10.9268 4 0 4 0 4 0 2.66667 0 1.33333 0 0 0" fill="#515B60" fill-rule="evenodd" transform="matrix(-1 0 0 1 820 583)"/><path d="M53 17C39.0526 17 26.3008 16.6136 16.7368 15.0682 1.99248 13.1364 0 10.8182 0 8.5 0 6.18182 1.99248 3.86364 16.7368 1.93182 26.3008 0.386364 39.0526 0 53 0 66.5489 0 79.3008 0.386364 88.8647 1.93182 104.008 3.86364 106 6.18182 106 8.5 106 10.8182 104.008 13.1364 88.8647 15.0682 79.3008 16.6136 66.5489 17 53 17M5.18045 8.5C9.16541 10.4318 26.6992 13.1364 53 13.1364 78.9023 13.1364 96.4361 10.4318 100.421 8.5 96.4361 6.56818 78.9023 3.86364 53 3.86364 26.6992 3.86364 9.16541 6.56818 5.18045 8.5" fill="#407BFF" fill-rule="evenodd" transform="matrix(-1 0 0 1 858 566)"/><path d="M52.8795 4.8C52.8795 4.8 52.8795 4.8 52.8795 4.8 58.0482 5.2 62.4217 5.6 66 6 66 6 66 6 66 6 62.4217 5.6 58.0482 5.2 52.8795 4.8M31.012 4C31.012 4 30.6145 4 30.6145 4 36.9759 4 42.9398 4.4 48.506 4.4 48.506 4.4 48.506 4.4 48.506 4.4 42.9398 4.4 37.3735 4 31.012 4M15.9036 0C9.93976 0.4 4.77108 0.8 0 1.2 0 1.2 0 1.2 0 1.2 4.77108 0.8 9.93976 0.4 15.9036 0 15.9036 0 15.9036 0 15.9036 0M30.6145 0C27.0361 0 23.0602 0 19.8795 0 19.8795 0 19.8795 0 19.8795 0 23.4578 0 27.0361 0 30.6145 0 30.6145 0 30.6145 0 30.6145 0" fill="#FFFFFF" fill-rule="evenodd" transform="matrix(-1 0 0 1 836 566)"/><path d="M0 0C0 0 0 0 0 0 1.81818 1 3.63636 1 5 1 5 1 5 1 5 1 3.63636 1 1.81818 0 0 0" fill="#B9BDBF" fill-rule="evenodd" transform="matrix(-1 0 0 1 788 570)"/><path d="M30.7083 0C27.119 0 23.5298 0 19.9405 0 19.9405 0 19.9405 0 19.9405 0 18.3452 0 17.1488 0 15.9524 0 15.9524 0 15.9524 0 15.9524 0 9.97024 0.4 4.78571 0.8 0 1.2 0.797619 5.6 0.797619 5.6 0.797619 5.6 8.77381 4.8 18.744 4 30.7083 4 30.7083 4 30.7083 4 30.7083 4 30.7083 4 31.1071 4 31.1071 4 37.4881 4 43.0714 4.4 48.6548 4.4 48.6548 4.4 48.6548 4.4 48.6548 4.4 50.25 4.4 51.8452 4.8 53.0417 4.8 53.0417 4.8 53.0417 4.8 53.0417 4.8 58.2262 5.2 62.6131 5.6 66.2024 6 67 2 67 2 67 2 67 2 67 2 67 2 57.0298 0.4 44.2679 0 30.7083 0" fill="#E8505B" fill-rule="evenodd" transform="matrix(-1 0 0 1 836 566)"/><path d="M31.7526 6C31.7526 6 31.7526 6 31.7526 6 34.9278 6 38.8969 6 42.4691 6 42.4691 6 42.4691 6 42.4691 6 38.8969 6 35.3247 6 31.7526 6M7.14433 4C7.14433 4.4 7.14433 4.4 7.14433 4.4 13.0979 5.2 20.2423 5.6 28.1804 6 28.1804 6 28.1804 6 28.1804 6 20.2423 5.6 13.0979 4.8 7.14433 4M0.396907 3.2C0.396907 3.2 0.396907 3.2 0 3.2 1.19072 3.2 1.98454 3.6 3.17526 3.6 3.17526 3.6 3.17526 3.6 3.17526 3.6 1.98454 3.2 1.19072 3.2 0.396907 3.2M60.3299 1.6C55.1701 1.6 49.2165 2 42.4691 2 42.4691 2 42.866 2 42.866 2 49.2165 2 55.1701 1.6 60.3299 1.6 60.3299 1.6 60.3299 1.6 60.3299 1.6M77 0C73.4278 0.4 69.4588 0.8 64.6959 1.2 64.6959 1.2 64.6959 1.2 64.6959 1.2 69.4588 0.8 73.4278 0.4 77 0 77 0 77 0 77 0" fill="#FFFFFF" fill-rule="evenodd" transform="matrix(-1 0 0 1 848 577)"/><path d="M0 0C0 0 0 0 0 0 0.8 0 2 0.5 3.2 0.5 3.6 0.5 4 0.5 4 1 4 0.5 4 0.5 4 0.5 4 0.5 3.6 0.5 3.6 0.5 2.4 0.5 0.8 0 0 0" fill="#A8ADAF" fill-rule="evenodd" transform="matrix(-1 0 0 1 845 581)"/><path d="M5 0C3.63636 0 1.81818 0 0 1 0 1 0 1 0 1 1.81818 1 3.63636 0 5 0 5 0 5 0 5 0" fill="#B9BDBF" fill-rule="evenodd" transform="matrix(-1 0 0 1 788 578)"/><path d="M76.3023 0C72.7442 0.4 68.7907 0.8 64.0465 1.2 64.0465 1.2 64.0465 1.2 64.0465 1.2 62.8605 1.2 61.2791 1.6 59.6977 1.6 59.6977 1.6 59.6977 1.6 59.6977 1.6 54.5581 1.6 48.6279 2 42.3023 2 42.3023 2 41.907 2 41.907 2 41.907 2 41.907 2 41.907 2 30.4419 2 20.5581 1.6 13.0465 0.8 12.6512 1.6 11.8605 2.4 10.6744 2.4 6.32558 2.8 3.55814 2.8 0 3.2 0.790698 3.2 1.5814 3.2 2.76744 3.6 3.55814 3.6 5.13953 4 6.32558 4 6.32558 4 6.72093 4 6.72093 4 12.6512 4.8 19.7674 5.6 27.6744 6 27.6744 6 27.6744 6 27.6744 6 28.8605 6 30.0465 6 31.2326 6 31.2326 6 31.2326 6 31.2326 6 34.7907 6 38.3488 6 41.907 6 55.3488 6 68 5.6 77.8837 4 80.6512 3.6 83.0233 3.2 85 2.8 83.0233 2.8 81.0465 2.8 78.6744 2.4 77.4884 2.4 76.6977 1.2 76.3023 0" fill="#E8505B" fill-rule="evenodd" transform="matrix(-1 0 0 1 847 577)"/><path d="M1 0C1 1 1 1 1 1 0 1 0 1 0 1 0 1 1 0 1 0Z" fill="#263238" fill-rule="evenodd" transform="matrix(-1 0 0 1 810 295)"/><rect x="0" y="0" width="1" height="1" fill="#263238" transform="matrix(-1 0 0 1 779 320)"/><path d="M1.68421 4.58333C0.842105 5.41667 0.421053 6.25 0.421053 7.08333 0 7.91667 0.421053 9.16667 1.26316 9.58333 2.10526 10 3.36842 9.16667 4.21053 8.75 6.73684 6.66667 7.15789 3.33333 8 0 8 0 5.05263 1.66667 4.63158 1.66667 3.36842 2.5 2.52632 3.75 1.68421 4.58333Z" fill="#263238" fill-rule="evenodd" transform="matrix(-1 0 0 1 829 205)"/><path d="M3.9577 0C0.39577 11.0943 0 23.3774 1.97885 34.8679 7.12387 57.4528 62.5317 60.6226 86.2779 63.7925 75.5921 103.811 51.0544 186.623 51.0544 186.623 68.0725 189 68.0725 189 68.0725 189 68.0725 189 115.961 100.642 123.876 61.0189 131 24.9623 47.8882 5.9434 47.8882 5.9434 3.9577 0 3.9577 0 3.9577 0" fill="#EF858D" fill-rule="evenodd" transform="matrix(-1 0 0 1 816 376)"/><path d="M23.3025 2.8C27.2521 6.8 31.9916 10.8 44.2353 14.4 47 15.2 46.605 22 39.8908 21.2 33.5714 20.8 24.0924 19.6 19.3529 19.2 11.4538 18.4 8.68908 18.4 2.36975 18 1.18487 18 0 16.8 0 15.2 1.97479 1.2 1.97479 1.2 1.97479 1.2 1.97479 1.2 1.97479 1.2 1.97479 1.2 1.97479 0.4 2.76471 0 3.15966 0.4 20.9328 1.6 20.9328 1.6 20.9328 1.6 21.7227 2 22.5126 2.4 23.3025 2.8" fill="#263238" fill-rule="evenodd" transform="matrix(-1 0 0 1 771 562)"/><path d="M3.55556 8.6087C4 7.82609 4 5.47826 3.55556 3.52174 3.55556 3.13043 3.11111 2.73913 3.11111 2.34783 2.66667 1.17391 2.66667 0.782609 2.66667 0.391304 2.22222 0 2.22222 0 2.22222 0 1.77778 0.391304 1.77778 0.391304 1.77778 0.391304 1.77778 0.391304 1.77778 0.391304 1.77778 0.391304 1.77778 0.391304 1.77778 0.391304 1.77778 0.391304 1.77778 0.391304 1.77778 0.391304 1.77778 0.391304 1.33333 1.95652 0.888889 3.13043 0.444444 4.69565 0.444444 4.69565 0.444444 4.69565 0.444444 4.69565 0 5.86957 0 7.04348 0.444444 8.21739 0.888889 8.6087 1.77778 9 2.22222 9 2.66667 9 3.11111 9 3.55556 8.6087M1.33333 7.82609C0.888889 7.04348 0.888889 5.47826 1.33333 3.52174 1.33333 3.52174 1.33333 3.52174 1.33333 3.52174 1.77778 3.13043 1.77778 2.34783 2.22222 1.56522 2.22222 1.95652 2.22222 2.34783 2.66667 2.73913 3.11111 4.30435 3.11111 5.86957 3.11111 7.43478 3.11111 7.82609 3.11111 7.82609 2.66667 8.21739 2.66667 8.21739 2.66667 8.21739 2.22222 8.21739 1.77778 8.21739 1.33333 8.21739 1.33333 7.82609" fill="#E22230" fill-rule="evenodd" transform="matrix(-1 0 0 1 748 566)"/><path d="M5.6 4.875C6 4.125 6 3.75 5.6 3 4.8 2.25 4 1.5 2.8 1.125 1.6 0.375 0.8 0.375 0.4 0 0 0 0 0 0 0 0 0.375 0 0.375 0 0.375 0 0.375 0 0.375 0 0.375 0 0.375 0 0.375 0 0.375 0 0.375 0 0.375 0 0.375 0 0.375 0 0.375 0 0.375 0 1.125 0.4 1.875 0.8 2.25 1.2 2.625 1.2 3 1.6 3.375 2.4 4.875 3.6 6 4.4 6 4.8 6 5.6 5.625 5.6 4.875M1.6 1.875C1.2 1.5 1.2 1.125 1.2 0.75 1.6 1.125 2 1.125 2.4 1.5 2.4 1.5 2.4 1.5 2.4 1.5 3.2 1.875 4.4 2.625 5.2 3.375 5.2 3.75 5.2 4.125 5.2 4.5 5.2 4.5 5.2 4.5 5.2 4.5 5.2 4.875 5.2 4.875 5.2 4.875 4.8 5.25 4.8 5.25 4.8 5.25 4 5.25 2.4 3.375 1.6 1.875" fill="#E22230" fill-rule="evenodd" transform="matrix(-1 0 0 1 746 566)"/><path d="M83.494 5.9434C83.494 5.9434 0 24.9623 7.15663 61.0189 15.1084 100.642 63.2169 189 63.2169 189 80.3133 186.623 80.3133 186.623 80.3133 186.623 80.3133 186.623 55.6627 103.811 44.9277 63.7925 68.7831 60.6226 124.446 57.4528 129.614 34.8679 132 23.3774 131.205 11.0943 127.627 0 83.494 5.9434 83.494 5.9434 83.494 5.9434" fill="#EF858D" fill-rule="evenodd" transform="matrix(-1 0 0 1 920 376)"/><path d="M26.2881 1.6C43.8136 0.4 43.8136 0.4 43.8136 0.4 44.2119 0 45.0085 0.4 45.0085 1.2 45.0085 1.2 45.0085 1.2 45.0085 1.2 47 15.2 47 15.2 47 15.2 47 16.8 46.2034 18 44.6102 18 38.2373 18.4 35.4492 18.4 27.483 19.2 22.7034 19.6 13.1441 20.8 6.77119 21.2 0 22 0 15.2 2.38983 14.4 14.7373 10.8 19.5169 6.8 23.5 2.8 24.2966 2.4 25.0932 2 26.2881 1.6" fill="#263238" fill-rule="evenodd" transform="matrix(-1 0 0 1 881 562)"/><path d="M1.58755 14.6391C0 9.1 3.57198 3.16522 9.1284 1.58261 14.6848 0 20.6381 3.56087 22.2257 9.1 22.2257 9.49565 22.2257 9.49565 22.2257 9.49565 23.8132 15.0348 25.7977 20.9696 27.7821 26.9043 29.3696 32.8391 31.3541 38.7739 33.7354 44.313 35.7198 49.8522 38.1012 55.3913 40.8794 60.5348 42.07 62.9087 43.6576 65.2826 45.2451 67.6565 46.4358 69.6348 48.0233 71.613 49.6109 73.1956 48.8171 72.8 48.8171 72.8 48.8171 72.8 48.0233 72.0087 47.2296 72.0087 46.4358 71.613 46.0389 71.613 46.0389 71.613 46.0389 71.613 46.4358 71.613 47.2296 71.613 47.6265 71.613 49.6109 71.2174 51.5953 70.4261 53.5798 69.6348 57.1517 68.0522 61.5175 66.0739 65.8833 63.7 69.8521 61.7217 74.2179 59.3478 78.1868 56.9739 82.5525 54.9957 86.5214 52.6217 90.8872 50.2478 90.8872 50.2478 90.8872 50.2478 90.8872 50.2478 92.8716 49.0609 95.6498 49.4565 97.2374 51.0391 99.2218 53.413 102 56.5783 99.6187 58.5565 96.0467 62.1174 89.6965 65.2826 86.1245 68.4478 82.1556 71.613 78.1868 74.7783 74.2179 77.5478 69.8521 80.713 65.4864 83.4826 61.1206 85.8565 58.7393 87.4391 55.9611 88.6261 53.1829 89.4174 51.5953 90.2087 49.6109 90.6043 48.0233 90.6043 46.4358 91 45.2451 91 44.0545 90.6043 41.6732 90.6043 39.6887 89.813 38.1012 88.6261 37.3074 88.2304 37.3074 88.2304 37.3074 88.2304 37.3074 87.8348 37.3074 87.8348 37.3074 87.8348 34.1323 85.4609 31.3541 82.6913 28.9728 79.5261 26.5914 76.3609 24.607 73.5913 23.0195 70.4261 19.4475 64.4913 16.6693 58.5565 13.891 52.2261 11.5097 45.8957 9.1284 39.9609 7.14397 33.6304 5.95331 30.4652 5.15953 27.3 3.96887 24.1348 3.1751 20.9696 2.38132 17.8043 1.58755 14.6391 1.58755 14.6391 1.58755 14.6391 1.58755 14.6391" fill="#263238" fill-rule="evenodd" transform="matrix(-1 0 0 1 790 269)"/><path d="M5.38461 13C10 12.2353 10 12.2353 10 12.2353 10 12.2353 8.46154 3.05882 5 0 3.07692 1.91176 1.53846 3.82353 0.384615 5.73529 0 11.0882 5.38461 13 5.38461 13Z" fill="#FFFFFF" fill-rule="evenodd" transform="matrix(-1 0 0 1 701 315)"/><path d="M2.38235 7.2C0.794118 8.4 0 10.8 1.19118 12.4 2.38235 15.2 2.38235 15.2 2.38235 15.2 3.17647 16.8 4.36765 17.6 5.95588 17.6 18.6618 18 18.6618 18 18.6618 18 25.8088 10 25.8088 10 25.8088 10 27 9.2 27 7.6 26.6029 6.4 23.8235 2 23.8235 2 23.8235 2 23.0294 0.4 21.4412 0 19.8529 0.8 14.2941 3.2 14.2941 3.2 14.2941 3.2 14.2941 3.2 6.35294 4.8 2.38235 7.2" fill="#F9BBB2" fill-rule="evenodd" transform="matrix(-1 0 0 1 697 309)"/><path d="M69.3694 2.38775C49.5495 0 29.3333 0 9.11712 2.38775 8.72072 2.38775 8.72072 2.38775 8.72072 2.38775 3.56757 3.58163 0 8.35714 0.792793 13.9286 6.34234 46.5612 11.8919 80.3878 11.4955 116.204 81.2613 117 81.2613 117 81.2613 117 88 65.2653 84.4324 31.0408 82.0541 15.1224 80.8649 8.35714 75.7117 3.58163 69.3694 2.38775" fill="#263238" fill-rule="evenodd" transform="matrix(-1 0 0 1 850 265)"/><path d="M9.92268 82.4591C4.36598 61.5484 0 0 79.3814 20.9107 86.1289 22.8834 92.8763 24.4615 99.2268 21.3052 102.799 19.727 105.577 18.5434 105.577 18.5434 121.057 11.8362 138.124 16.9653 141.696 31.1687 150.031 63.1265 150.031 63.1265 150.031 63.1265 154 77.33 141.696 89.9553 125.026 91.5335 125.026 91.5335 121.851 91.928 117.881 92.3226 111.134 92.7171 105.974 97.4516 100.814 102.186 41.6753 159 15.8763 103.764 9.92268 82.4591" fill="#407BFF" fill-rule="evenodd" transform="matrix(-1 0 0 1 920 283)"/><path d="M75.2632 101.71C21.7867 101.71 21.7867 101.71 21.7867 101.71 28.1247 108.042 36.0471 112 46.3463 112 54.6648 112 64.1717 109.23 75.2632 101.71M111.31 0C106.953 0 102.199 1.18728 97.8421 3.16608 97.8421 3.16608 95.0693 4.35336 91.5042 5.9364 89.1274 7.12367 86.3546 7.91519 83.9778 7.91519 80.0166 7.91519 75.6593 6.72791 71.6981 5.54064 70.1136 5.14488 68.9252 4.74912 67.3407 4.35336 66.5485 4.35336 66.1524 4.35336 65.3601 3.9576 64.1717 3.9576 62.9834 3.56184 61.795 3.56184 54.6648 1.9788 48.3269 1.18728 42.7812 1.18728 38.0277 1.18728 33.6704 1.9788 30.1053 2.77032 29.7091 2.77032 29.313 2.77032 28.9169 2.77032 5.54571 8.70671 0 28.4947 0 45.9081 0 54.2191 1.18837 62.1343 2.37673 67.2792 4.75346 75.5901 9.90305 89.4417 19.41 99.3357 78.8283 99.3357 78.8283 99.3357 78.8283 99.3357 83.1856 96.1696 87.939 91.8163 93.0886 87.0671 98.2382 82.318 103.388 77.5689 110.122 77.1731 114.083 76.7774 117.252 76.3816 117.252 76.3816 131.909 75.1943 143 64.9046 143 53.0318 143 51.053 142.604 49.47 142.208 47.8869 140.227 40.3675 140.227 40.3675 140.227 40.3675 137.058 41.159 137.058 41.159 137.058 41.159 134.285 45.5124 127.551 54.2191 117.648 62.1343 113.291 65.6961 108.537 68.4664 103.784 70.4452 101.803 71.6325 99.4266 72.0283 97.0499 72.0283 90.7119 72.0283 84.374 67.6749 82.3933 60.947 80.4127 53.8233 80.4127 53.8233 80.4127 53.8233 112.499 45.5124 112.499 45.5124 112.499 45.5124 108.934 31.265 108.934 31.265 108.934 31.265 136.266 24.1413 136.266 24.1413 136.266 24.1413 133.889 15.8304 133.889 15.8304 133.889 15.8304 131.512 5.9364 122.006 0 111.31 0" fill="#E8505B" fill-rule="evenodd" transform="matrix(-1 0 0 1 912 298)"/><path d="M57 0C32.6853 6.35897 32.6853 6.35897 32.6853 6.35897 32.2867 4.37179 32.2867 4.37179 32.2867 4.37179 0 12.7179 0 12.7179 0 12.7179 1.99301 19.8718 1.99301 19.8718 1.99301 19.8718 3.98601 26.6282 10.3636 31 16.7413 31 19.1329 31 21.5245 30.6026 23.5175 29.4103 28.3007 27.4231 33.0839 24.641 37.4685 21.0641 47.4336 13.1154 54.2098 4.37179 57 0" fill="#59657F" fill-rule="evenodd" transform="matrix(-1 0 0 1 832 339)"/><path d="M26.4444 10.8889C28 17.5 24.1111 24.5 17.5 26.4444 10.5 28 3.5 24.1111 1.94444 17.1111 0 10.5 3.88889 3.5 10.8889 1.55556 17.5 0 24.5 3.88889 26.4444 10.8889Z" fill="#263238" fill-rule="evenodd" transform="matrix(-1 0 0 1 828 327)"/><path d="M127 16.0517 3.97392 49 0 32.4414 122.695 0 127 16.0517Z" fill="#E22230" fill-rule="evenodd" transform="matrix(-1 0 0 1 803 297)"/><path d="M4.62609 29 0 10.7283 32.5478 0 38 22.2948 4.62609 29Z" fill="#407BFF" fill-rule="evenodd" transform="matrix(-1 0 0 1 680 286)"/><path d="M32.5478 0 0 10.7283 4.62609 29 38 22.2948 32.5478 0Z" fill="#E22230" fill-rule="evenodd" transform="matrix(-1 0 0 1 680 286)"/><path d="M18 30.2228 8.18182 33 0 2.77723 9.81818 0 18 30.2228Z" fill="#FFFFFF" fill-rule="evenodd" transform="matrix(-1 0 0 1 873 338)"/><path d="M0 50 0 49.3311 188 0 188 0.83612 0 50Z" fill="#FFFFFF" fill-rule="evenodd" transform="matrix(-1 0 0 1 867 300)"/><path d="M0.5 50 0 49.1667 187.5 0 188 0.833333 0.5 50Z" fill="#FFFFFF" fill-rule="evenodd" transform="matrix(-1 0 0 1 866 303)"/><path d="M0 50 0 49.1639 188 0 188 0.83612 0 50Z" fill="#FFFFFF" fill-rule="evenodd" transform="matrix(-1 0 0 1 865 307)"/><path d="M0.333333 50 0 49.1639 187.5 0 188 0.668896 0.333333 50Z" fill="#FFFFFF" fill-rule="evenodd" transform="matrix(-1 0 0 1 864 311)"/><path d="M3.55556 1.5C4 2.5 3.55556 3.5 2.66667 4 1.33333 4 0.444444 3.5 0.444444 2.5 0 1.5 0.888889 0.5 1.77778 0.5 2.66667 0 3.55556 0.5 3.55556 1.5Z" fill="#FFFFFF" fill-rule="evenodd" transform="matrix(-1 0 0 1 655 291)"/><path d="M2.66667 1.77778C3 2.66667 2.66667 3.55556 1.66667 3.55556 1 4 0.333333 3.55556 0.333333 2.66667 0 1.77778 0.666667 0.444444 1.33333 0.444444 2 0 2.66667 0.888889 2.66667 1.77778Z" fill="#FFFFFF" fill-rule="evenodd" transform="matrix(-1 0 0 1 651 303)"/><path d="M3 1.125C3 1.875 2.625 2.625 1.875 3 1.125 3 0.375 2.625 0 1.875 0 1.125 0.375 0.375 1.125 0.375 1.875 0 2.625 0.375 3 1.125Z" fill="#FFFFFF" fill-rule="evenodd" transform="matrix(-1 0 0 1 672 296)"/><path d="M4 1.125C4 1.875 3.5 2.625 2.5 3 1.5 3 0.5 2.625 0 1.875 0 1.125 0.5 0.375 1.5 0 2.5 0 3.5 0.375 4 1.125Z" fill="#FFFFFF" fill-rule="evenodd" transform="matrix(-1 0 0 1 670 307)"/><path d="M56.5882 2.79255C61.3369 0 67.6684 1.19681 70.8342 5.98404 74 11.1702 72.8128 17.5532 68.0642 21.1436 68.0642 21.1436 68.0642 21.1436 68.0642 21.1436 59.754 26.7287 51.4439 32.3138 43.5294 38.2979 35.615 43.883 28.492 50.266 21.369 57.0479 20.5775 57.8457 20.1818 58.6436 19.3904 59.4415 18.2032 60.6383 18.2032 60.6383 18.2032 60.6383 18.9947 59.8404 18.9947 58.6436 19.3904 57.8457 19.3904 56.6489 19.3904 55.8511 18.9947 55.0532 18.9947 54.6543 18.5989 54.2553 18.5989 53.8564 18.5989 53.8564 18.2032 53.4574 18.2032 53.0585 17.8075 52.6596 17.8075 52.2606 17.4118 52.2606 17.016 52.2606 17.8075 52.6596 18.2032 53.0585 20.1818 53.8564 22.1604 54.6543 24.139 55.4521 26.5134 56.25 28.492 56.6489 30.8663 57.4468 40.3636 59.8404 50.6524 61.8351 60.1497 63.8298 60.5455 63.8298 60.5455 63.8298 60.5455 63.8298 62.9198 64.2287 64.5027 66.2234 64.8984 69.016 64.8984 71.8085 62.5241 74.6011 59.754 74.6011 49.0695 75 38.385 75 28.0963 73.8032 25.3262 73.4043 22.5561 73.0053 19.7861 72.6064 17.016 72.2074 13.8503 71.4096 11.0802 70.2128 9.1016 69.4149 7.12299 68.617 5.54011 67.4202 3.95722 66.2234 2.77005 65.0266 1.97861 63.4309 1.58289 63.0319 1.18717 62.234 1.18717 61.8351 0.791444 61.0372 0.395722 60.2394 0.395722 59.8404 0 58.2447 0 56.6489 0 55.0532 0.395722 53.0585 1.18717 50.6649 2.37433 48.6702 3.95722 47.0745 3.95722 47.0745 3.95722 47.0745 4.74866 45.8777 5.54011 44.6808 6.72727 43.484 10.2888 39.4947 14.246 35.5053 18.2032 31.516 22.1604 27.9255 26.1176 24.3351 30.4706 21.1436 34.4278 17.9521 38.7807 14.7606 43.1337 11.5691 47.4866 8.7766 51.4439 5.58511 56.1925 2.79255L56.5882 2.79255Z" fill="#263238" fill-rule="evenodd" transform="matrix(-1 0 0 1 905 268)"/><path d="M0.781609 34.1034C0 34.8965 0.390805 36.4828 0.781609 37.2759 3.51724 40.0517 10.5517 46 23.8391 46 33.2184 46 34 42.8276 33.2184 40.0517 32.4368 37.2759 30.4828 35.2931 27.7471 34.5 21.1034 32.1207 19.931 26.9655 20.3218 21.4138 20.7126 19.8276 20.7126 18.2414 21.1034 16.6552 9.77011 7.13793 9.77011 7.13793 9.77011 7.13793 1.56322 0 1.56322 0 1.56322 0 3.90805 9.51724 6.25287 26.569 0.781609 34.1034" fill="#F9BBB2" fill-rule="evenodd" transform="matrix(-1 0 0 1 823 232)"/><path d="M12 4.71429C10.4516 4.71429 8.90323 3.85714 7.35484 3 5.03226 4.71429 2.70968 5.57143 0 6 0.774194 3.42857 2.70968 1.28571 5.03226 0 5.80645 0.428571 6.58065 1.28571 7.35484 2.57143 7.74194 1.71429 8.12903 0.857143 8.51613 0 8.51613 0 12 1.71429 12 4.71429Z" fill="#E22230" fill-rule="evenodd" transform="matrix(-1 0 0 1 807 275)"/><path d="M7.43478 0C5.08696 0.392857 3.13043 0.785714 1.17391 1.57143 0 16.1071 22.3043 22 22.3043 22 23.087 18.0714 24.6522 14.5357 27 11.7857 12.1304 8.64286 7.43478 0 7.43478 0Z" fill="#FFFFFF" fill-rule="evenodd" transform="matrix(-1 0 0 1 829 264)"/><path d="M0 0C1.93182 0 4.25 0.407407 5.79545 1.22222 17 11 5.79545 22 5.79545 22 5.02273 17.9259 3.09091 14.2593 0.772727 11.4074 7.34091 6.11111 0 0 0 0Z" fill="#FFFFFF" fill-rule="evenodd" transform="matrix(-1 0 0 1 799 264)"/><path d="M0 0C0 0 0 0 0 0 10 9 10 9 10 9 10 9 10 9 10 9 0 0 0 0 0 0" fill="#CCCCCC" fill-rule="evenodd" transform="matrix(-1 0 0 1 812 240)"/><path d="M0 0C0 0 0 0 0 0 1 1 1 1 1 1 1 1 1 1 1 1 0 0 0 0 0 0" fill="#C0C0C0" fill-rule="evenodd" transform="matrix(-1 0 0 1 813 239)"/><path d="M0 0.5C-1.27313e-16 0.223858 0.223858 0 0.5 0 0.776142 -1.27313e-16 1 0.223858 1 0.5 1 0.776142 0.776142 1 0.5 1 0.223858 1 -1.9097e-16 0.776142 0 0.5Z" fill="#C0C0C0" fill-rule="evenodd" transform="matrix(-1 0 0 1 803 249)"/><path d="M0 0C0 1.66667 0 2.91667 0.37931 4.58333 0.758621 9.16667 6.44828 13.75 10.2414 15 10.6207 13.3333 10.6207 11.6667 11 10 11 10 11 10 11 10 0.758621 0.416667 0.758621 0.416667 0.758621 0.416667 0 0 0 0 0 0" fill="#C7968E" fill-rule="evenodd" transform="matrix(-1 0 0 1 813 239)"/><path d="M1.19444 14.9932C3.98148 5.52381 14.3333 0 23.8889 2.7619 38.2222 6.70748 43 26.4354 41.8056 39.0612 41.8056 42.6122 40.213 45.7687 38.2222 48.9252 31.8518 56.4218 20.7037 58 12.7407 51.6871 4.77778 45.7687 3.98148 37.483 0.796296 24.068 0 21.3061 0.398148 18.1497 1.19444 14.9932Z" fill="#F9BBB2" fill-rule="evenodd" transform="matrix(-1 0 0 1 826 194)"/><path d="M3.78378 0.8C7.18919 0 10.973 4 12.4865 7.2 14 10.4 12.8649 14 9.08108 13.2 6.43243 12.8 3.78378 11.2 2.27027 8.8 0 5.6 0.756757 1.6 3.78378 0.8Z" fill="#F9BBB2" fill-rule="evenodd" transform="matrix(-1 0 0 1 829 222)"/><path d="M1.28571 0C2.14286 0 3 0.8 3 2 3 3.2 2.57143 4 1.71429 4 1.28571 4 0.428571 3.2 0 2.4 0 1.2 0.428571 0.4 1.28571 0Z" fill="#263238" fill-rule="evenodd" transform="matrix(-1 0 0 1 802 217)"/><path d="M1.28571 0C1.71429 0 2.57143 0.909091 3 2.27273 3 3.63636 2.57143 4.54545 1.71429 4.54545 0.857143 5 0 4.09091 0 2.72727 0 1.36364 0.428571 0 1.28571 0Z" fill="#263238" fill-rule="evenodd" transform="matrix(-1 0 0 1 790 215)"/><path d="M0.714286 8.6087C2.14286 9 3.92857 8.6087 5 7.82609 2.85714 5.47826 1.42857 2.73913 0 0L0.714286 8.6087Z" fill="#ED847E" fill-rule="evenodd" transform="matrix(-1 0 0 1 793 218)"/><path d="M1.3125 3.55556C2.625 2.22222 4.375 1.33333 6.125 1.77778 6.5625 1.77778 7 1.33333 7 0.888889 7 0.444444 7 0 6.5625 0 4.375 0 1.75 0.888889 0.4375 2.66667 0.4375 2.66667 0.4375 2.66667 0.4375 2.66667 0 2.66667 0 3.11111 0.4375 3.55556 0.875 3.55556 0.875 3.55556 0.875 3.55556 0.875 4 1.3125 3.55556 1.3125 3.55556Z" fill="#263238" fill-rule="evenodd" transform="matrix(-1 0 0 1 808 209)"/><path d="M6.58823 2.625C7 2.25 7 1.875 6.58823 1.875 4.94118 0.375 2.47059 0 0.411765 0.375 0.411765 0.375 0.411765 0.375 0.411765 0.375 0 0.375 0 0.75 0 1.125 0 1.5 0.411765 1.5 0.823529 1.5 2.47059 1.125 4.52941 1.5 5.76471 2.625 5.76471 3 6.17647 3 6.17647 3L6.58823 2.625Z" fill="#263238" fill-rule="evenodd" transform="matrix(-1 0 0 1 791 209)"/><path d="M10.973 0C3.13513 4.36207 3.13513 4.36207 3.13513 4.36207 0 9.91379 11.3649 15.4655 11.3649 15.4655 17.6351 21.4138 17.6351 21.4138 17.6351 21.4138 19.2027 23 21.9459 23 23.9054 22.2069 25.473 21.0172 25.473 21.0172 25.473 21.0172 25.473 21.0172 25.473 21.0172 25.473 21.0172 28.2162 19.8276 29 16.2586 27.4324 13.8793 22.7297 5.55172 22.7297 5.55172 22.7297 5.55172L10.973 0Z" fill="#F9BBB2" fill-rule="evenodd" transform="matrix(-1 0 0 1 854 330)"/><path d="M2.30769 13.9487C6.53846 16 6.53846 16 6.53846 16 6.53846 16 10 5.33333 9.23077 0 6.53846 0.820513 4.23077 2.05128 1.92308 3.28205 0 6.5641 0 10.6667 2.30769 13.9487Z" fill="#FFFFFF" fill-rule="evenodd" transform="matrix(-1 0 0 1 854 328)"/><path d="M9.87395 5.47826C15.4034 3.13043 22.1176 3.13043 28.437 3.91304 31.5966 4.30435 34.7563 4.69565 37.521 4.30435 40.6807 3.91304 43.4454 2.34783 45.0252 0 47 5.47826 46.605 12.5217 42.2605 16.4348 39.1008 19.5652 34.3613 20.3478 29.6218 20.3478 25.2773 20.3478 20.9328 19.1739 16.1933 19.5652 11.0588 19.5652 1.97479 27 0.789916 19.5652 0 13.6957 4.7395 7.82609 9.87395 5.47826Z" fill="#263238" fill-rule="evenodd" transform="matrix(-1 0 0 1 829 186)"/><path d="M19 1.57009C19 0.392523 18.1915 0 17.383 0 6.46808 1.17757 6.46808 1.17757 6.46808 1.17757 4.44681 1.96262 2.82979 5.1028 2.42553 7.06542 1.61702 9.81308 0.808511 12.5607 0.404255 15.3084 0 19.2336 0.808511 23.5514 3.23404 27.0841 4.44681 28.6542 6.06383 29.8318 6.87234 31.7944 7.2766 33.757 6.46808 36.5047 4.44681 36.5047 15.3617 42 13.3404 32.1869 13.7447 27.8692 9.70213 27.4766 6.87234 25.9065 6.06383 22.3738 5.65957 20.4112 6.87234 17.271 8.48936 15.7009 9.70213 14.9159 10.5106 14.5234 12.1277 15.3084 11.7234 19.6262 14.1489 24.3364 16.5745 28.2617 19 24.729 19 24.729 19 24.729 16.1702 20.8037 12.1277 13.7383 16.9787 11.3832 19 10.5981 19 4.71028 19 1.57009Z" fill="#263238" fill-rule="evenodd" transform="matrix(-1 0 0 1 832 207)"/><path d="M11 0.818182C10.6071 3.27273 10.6071 8.18182 10.6071 8.18182 10.2143 8.18182 9.82143 8.18182 9.42857 8.18182 5.10714 9 2.75 7.36364 1.57143 5.31818 0.785714 4.09091 0.392857 2.86364 0.392857 2.04545 0 0.818182 0 0 0 0 2.75 1.63636 7.07143 1.22727 9.42857 1.22727 10.2143 0.818182 11 0.818182 11 0.818182Z" fill="#2E353A" fill-rule="evenodd" transform="matrix(-1 0 0 1 802 230)"/><path d="M10 1.33333C10 2.22222 10 2.22222 10 2.22222 9.58333 3.11111 9.16667 3.55556 8.75 3.55556 5 4 2.5 3.55556 0.833333 2.66667 0.416667 2.22222 0.416667 1.77778 0.416667 1.77778 0 0.444444 0 0 0 0 2.91667 1.77778 7.5 1.33333 10 1.33333Z" fill="#FFFFFF" fill-rule="evenodd" transform="matrix(-1 0 0 1 802 230)"/><path d="M8 3.11111C3.6 4 1.2 2.22222 0 0 1.6 0 3.2 0 5.2 0.444444 6.4 1.33333 7.2 2.22222 8 3.11111Z" fill="#DE5753" fill-rule="evenodd" transform="matrix(-1 0 0 1 800 235)"/><path d="M1.17895 9.16049 27.9579 14 32 5.87654 0 0 1.17895 9.16049Z" fill="#407BFF" fill-rule="evenodd" transform="matrix(-1 0 0 1 771 552)"/><path d="M0 0 1.16667 9.16049 27.6667 14 30 9.16049 30 5.35802 26.5 5.01235 7.83333 1.72839 3.16667 0.864197 0 0Z" fill="#E8505B" fill-rule="evenodd" transform="matrix(-1 0 0 1 771 552)"/><path d="M5.15789 3C5.89474 2.25 6.26316 1.125 6.63158 0.75 6.63158 0.375 6.63158 0.375 6.63158 0.375 7 0.375 7 0.375 7 0.375 7 0.375 7 0.375 7 0.375 6.63158 0 6.63158 0 6.63158 0 6.63158 0 6.63158 0 6.63158 0 6.26316 0 6.26316 0 6.26316 0 6.26316 0 6.26316 0 6.26316 0 5.89474 0 5.89474 0 5.52632 0.375 3.68421 0.75 1.10526 1.875 0.368421 3 0 3.375 0 3.375 0 3.375 0 3.75 0 4.875 0.368421 5.25 0.736842 5.625 1.10526 6 1.47368 6 2.57895 6 4.05263 4.5 5.15789 3M1.47368 5.25C1.47368 5.25 1.10526 4.875 1.10526 4.875 0.736842 4.5 0.736842 4.125 0.736842 3.375 1.10526 2.625 2.94737 1.5 5.52632 0.75 4.42105 3 2.57895 5.25 1.47368 5.25" fill="#E22230" fill-rule="evenodd" transform="matrix(-1 0 0 1 865 565)"/><path d="M4.09091 6.47619C5 4.95238 4.09091 2.28571 3.18182 0.761905 3.18182 0.761905 3.18182 0.761905 3.18182 0.761905 3.18182 0.761905 3.18182 0.380952 3.18182 0.380952 3.18182 0.380952 3.18182 0.380952 3.18182 0.380952 2.72727 0 2.72727 0 2.72727 0 2.72727 0 2.72727 0 2.72727 0 2.72727 0 2.72727 0 2.72727 0 2.27273 0 2.27273 0 2.27273 0 2.27273 0 2.27273 0 2.27273 0 2.27273 0 2.27273 0 2.27273 0 2.27273 0.380952 1.81818 0.380952 1.81818 0.380952 1.81818 0.761905 1.81818 0.761905 1.81818 0.761905 1.36364 1.14286 0.909091 2.28571 0.909091 3.04762 0.454545 4.57143 0 6.47619 0.909091 7.61905 1.36364 8 2.27273 8 2.72727 8 3.63636 7.61905 4.09091 7.2381 4.09091 6.47619M2.72727 7.2381C1.81818 7.2381 1.81818 7.2381 1.81818 6.85714 0.909091 6.09524 1.36364 3.04762 2.27273 1.14286 3.18182 2.66667 4.09091 4.95238 3.63636 6.47619 3.63636 6.47619 3.63636 6.47619 3.63636 6.47619 3.18182 6.85714 2.72727 6.85714 2.72727 7.2381" fill="#E22230" fill-rule="evenodd" transform="matrix(-1 0 0 1 861 565)"/><path d="M3.5 12 30.5 8.78873 32 0 0 3.5493 3.5 12Z" fill="#407BFF" fill-rule="evenodd" transform="matrix(-1 0 0 1 865 554)"/><path d="M32 0 23.3333 0.84507 4.66667 3.21127 0 3.5493 3.5 12 30.5 8.78873 32 0Z" fill="#E8505B" fill-rule="evenodd" transform="matrix(-1 0 0 1 865 554)"/><path d="M0 18C-4.58328e-15 8.05887 8.05887 0 18 0 27.9411-4.58328e-15 36 8.05887 36 18 36 27.9411 27.9411 36 18 36 8.05887 36-6.87492e-15 27.9411 0 18Z" fill="#407BFF" fill-rule="evenodd" transform="matrix(-1 0 0 1 769 221)"/><path d="M16.3902 0C7.41463 0 0 7.46429 0 16.5 0 25.5357 7.41463 33 16.3902 33 17.9512 33 19.122 32.6071 20.2927 32.2143 19.9024 22.3929 19.9024 22.3929 19.9024 22.3929 19.9024 22.3929 19.9024 22.3929 19.9024 22.3929 19.5122 22.3929 19.5122 22.3929 19.5122 22.3929 19.5122 19.6429 19.5122 19.6429 19.5122 19.6429 19.5122 19.6429 19.5122 19.6429 19.5122 19.6429 19.5122 14.9286 23.0244 11 27.7073 11 29.2683 11 30.8293 11.3929 32 12.1786 30.439 5.10714 23.8049 0 16.3902 0" fill="#E8505B" fill-rule="evenodd" transform="matrix(-1 0 0 1 767 223)"/><path d="M20 39C9.2 39 0 30.03 0 19.5 0 8.97 9.2 0 20 0 31.2 0 40 8.97 40 19.5 40 30.03 31.2 39 20 39M20 3.12C10.8 3.12 3.2 10.53 3.2 19.5 3.2 28.47 10.8 35.88 20 35.88 29.2 35.88 36.8 28.47 36.8 19.5 36.8 10.53 29.2 3.12 20 3.12" fill="#263238" fill-rule="evenodd" transform="matrix(-1 0 0 1 771 220)"/><path d="M0 8.5C-2.16433e-15 3.80558 3.80558 0 8.5 0 13.1944-2.16433e-15 17 3.80558 17 8.5 17 13.1944 13.1944 17 8.5 17 3.80558 17-3.24649e-15 13.1944 0 8.5Z" fill="#263238" fill-rule="evenodd" transform="matrix(-1 0 0 1 748 234)"/><path d="M7.61905 7C4.57143 7 1.90476 5.35294 0 2.88235 2.66667 0.823529 2.66667 0.823529 2.66667 0.823529 2.66667 0.823529 2.66667 0.823529 2.66667 0.823529 3.80952 2.88235 5.71429 3.70588 7.61905 3.70588 7.61905 3.70588 7.61905 3.70588 7.61905 3.70588 9.90476 3.70588 11.8095 2.88235 12.9524 0.823529 13.3333 0 14.4762 0 14.8571 0.411765 15.619 0.823529 16 2.05882 15.619 2.88235 13.7143 5.35294 10.6667 7 7.61905 7 7.61905 7 7.61905 7 7.61905 7" fill="#263238" fill-rule="evenodd" transform="matrix(-1 0 0 1 747 265)"/><path d="M0 0C16 0 16 0 16 0 14.0488 31.2644 14.0488 31.2644 14.0488 31.2644 14.0488 31.2644 14.0488 31.2644 14.0488 31.2644 10.1463 34 5.85366 34 1.95122 31.2644 1.56098 31.2644 1.56098 31.2644 1.56098 31.2644 0 0 0 0 0 0" fill="#407BFF" fill-rule="evenodd" transform="matrix(-1 0 0 1 747 245)"/><path d="M7.80488 4.37349C7.80488 4.37349 7.80488 4.37349 7.80488 4.37349 8.19512 4.37349 8.19512 4.37349 8.19512 4.77108 8.58537 4.77108 8.97561 4.77108 9.36585 4.77108 10.1463 5.16867 10.9268 5.96386 10.9268 6.75904 11.3171 7.15663 11.3171 7.55422 11.3171 7.95181 11.3171 7.95181 11.3171 7.95181 11.3171 7.95181 11.3171 7.95181 11.3171 7.95181 11.3171 7.95181 11.3171 7.95181 11.3171 7.95181 11.3171 7.95181 11.3171 7.95181 11.3171 7.95181 11.3171 7.95181 11.3171 7.95181 11.3171 7.95181 11.3171 7.95181 11.3171 7.95181 11.3171 7.95181 11.3171 7.95181 11.3171 7.95181 11.3171 7.95181 11.3171 7.95181 11.3171 7.95181 11.3171 7.95181 11.3171 7.95181 11.3171 8.3494 11.3171 8.3494 11.3171 8.3494 11.3171 8.3494 11.3171 8.3494 11.3171 8.3494 11.3171 8.3494 11.3171 8.3494 11.3171 8.3494 11.3171 8.3494 11.3171 8.3494 11.3171 8.3494 11.3171 8.3494 11.3171 8.3494 11.3171 8.3494 11.3171 8.3494 11.3171 8.3494 11.3171 8.3494 11.3171 8.3494 11.3171 8.3494 11.3171 8.3494 11.3171 8.3494 11.3171 8.3494 11.3171 8.3494 11.3171 8.3494 11.3171 8.3494 11.3171 8.3494 11.3171 9.14458 10.9268 9.93976 10.1463 10.7349 10.1463 10.7349 10.1463 10.7349 10.1463 10.7349 10.1463 10.7349 10.1463 10.7349 10.1463 10.7349 9.7561 10.7349 9.7561 11.1325 9.36585 11.1325 9.36585 11.1325 9.36585 11.1325 9.36585 11.1325 9.36585 11.1325 9.36585 11.1325 9.36585 11.1325 9.36585 11.1325 9.36585 11.1325 9.36585 11.1325 9.36585 11.1325 9.36585 11.1325 9.36585 11.1325 8.97561 11.1325 8.58537 11.5301 8.58537 11.5301 8.58537 11.5301 8.58537 11.5301 8.58537 11.5301 8.58537 11.5301 8.58537 11.5301 8.58537 11.5301 8.58537 11.5301 8.58537 11.5301 8.58537 11.5301 8.58537 11.5301 8.58537 11.5301 8.58537 11.5301 8.19512 11.5301 8.19512 11.5301 7.80488 11.5301 7.80488 11.5301 7.80488 11.5301 7.41463 11.5301 7.02439 11.5301 6.63415 11.1325 5.85366 10.7349 5.46341 10.7349 5.46341 10.3373 5.07317 9.93976 4.68293 9.54217 4.68293 8.74699 4.68293 8.3494 4.68293 7.95181 4.68293 7.55422 4.68293 7.15663 4.68293 7.15663 4.68293 7.15663 4.68293 7.15663 4.68293 7.15663 4.68293 7.15663 4.68293 7.15663 4.68293 7.15663 4.68293 7.15663 4.68293 7.15663 4.68293 7.15663 4.68293 7.15663 4.68293 7.15663 4.68293 7.15663 4.68293 7.15663 4.68293 7.15663 4.68293 7.15663 4.68293 7.15663 4.68293 7.15663 4.68293 7.15663 4.68293 7.15663 4.68293 7.15663 4.68293 7.15663 4.68293 7.15663 4.68293 7.15663 4.68293 7.15663 4.68293 7.15663 4.68293 7.15663 4.68293 7.15663 4.68293 7.15663 4.68293 7.15663 4.68293 7.15663 4.68293 6.75904 4.68293 6.75904 4.68293 6.75904 4.68293 6.75904 4.68293 6.75904 4.68293 6.75904 4.68293 6.75904 4.68293 6.75904 4.68293 6.75904 4.68293 6.75904 4.68293 6.75904 4.68293 6.75904 4.68293 6.75904 4.68293 6.75904 4.68293 6.75904 4.68293 6.75904 4.68293 6.75904 4.68293 6.75904 4.68293 6.75904 4.68293 6.75904 4.68293 6.75904 4.68293 6.75904 4.68293 6.75904 4.68293 6.75904 4.68293 6.75904 4.68293 6.75904 4.68293 6.75904 4.68293 6.75904 4.68293 6.75904 4.68293 6.75904 4.68293 6.75904 4.68293 6.75904 4.68293 6.75904 4.68293 6.75904 4.68293 6.75904 4.68293 6.75904 4.68293 6.75904 4.68293 6.75904 4.68293 6.75904 4.68293 6.75904 4.68293 6.75904 4.68293 6.75904 4.68293 6.75904 4.68293 6.75904 4.68293 6.75904 4.68293 6.36145 4.68293 6.36145 4.68293 6.36145 4.68293 6.36145 4.68293 6.36145 5.07317 6.36145 5.07317 6.36145 5.07317 6.36145 5.07317 6.36145 5.07317 6.36145 5.07317 6.36145 5.07317 6.36145 5.07317 6.36145 5.07317 6.36145 5.07317 6.36145 5.07317 6.36145 5.07317 6.36145 5.07317 6.36145 5.07317 6.36145 5.07317 6.36145 5.07317 5.96386 5.07317 5.96386 5.46341 5.96386 5.46341 5.56627 5.46341 5.56627 5.46341 5.56627 5.46341 5.56627 5.46341 5.56627 5.46341 5.56627 5.46341 5.56627 5.46341 5.56627 5.46341 5.56627 5.46341 5.56627 5.46341 5.56627 5.46341 5.56627 5.85366 5.16867 6.2439 5.16867 6.63415 4.77108 6.63415 4.77108 6.63415 4.77108 6.63415 4.77108 6.63415 4.77108 6.63415 4.77108 6.63415 4.77108 6.63415 4.77108 6.63415 4.77108 6.63415 4.77108 6.63415 4.77108 6.63415 4.77108 6.63415 4.77108 7.02439 4.77108 7.41463 4.77108 7.41463 4.77108 7.41463 4.77108 7.41463 4.77108 7.41463 4.77108 7.41463 4.77108 7.41463 4.77108 7.41463 4.77108 7.41463 4.37349 7.80488 4.37349 7.80488 4.37349 7.80488 4.37349 7.80488 4.37349 7.80488 4.37349M16 0C0 0 0 0 0 0 1.56098 31.012 1.56098 31.012 1.56098 31.012 1.95122 31.012 1.95122 31.012 1.95122 31.012 3.12195 32.2048 4.68293 32.6024 6.2439 33 6.2439 32.2048 7.02439 31.4096 7.80488 31.4096 8.58537 31.4096 9.36585 32.2048 9.36585 33 10.9268 32.6024 12.4878 32.2048 14.0488 31.012 14.0488 31.012 14.0488 31.012 14.0488 31.012 16 0 16 0 16 0" fill="#83373E" fill-rule="evenodd" transform="matrix(-1 0 0 1 747 245)"/><rect x="0" y="0" width="17" height="3" fill="#407BFF" transform="matrix(-1 0 0 1 748 243)"/><rect x="0" y="0" width="17" height="3" fill="#407BFF" transform="matrix(-1 0 0 1 748 243)"/><rect x="0" y="0" width="17" height="3" fill="#407BFF" transform="matrix(-1 0 0 1 748 243)"/><path d="M17 0 17 0 0 0 0 3 17 3 17 0Z" fill="#5F90FF" fill-rule="evenodd" transform="matrix(-1 0 0 1 748 243)"/><path d="M17 0 17 0 0 0 0 3 17 3 17 0" fill="#E22230" fill-rule="evenodd" transform="matrix(-1 0 0 1 748 243)"/><path d="M6.73684 6.4C5.47368 7.6 3.36842 8 1.68421 6.8 0 5.6 0 3.2 1.26316 2 2.52632 0.4 4.63158 0 6.31579 1.2 7.57895 2.4 8 4.8 6.73684 6.4" fill="#407BFF" fill-rule="evenodd" transform="matrix(-1 0 0 1 743 249)"/><path d="M3.52941 7C3.52941 7 3.52941 7 3.52941 7 3.52941 7 3.52941 7 3.52941 7M3.52941 7C3.52941 7 3.52941 7 3.52941 7 3.52941 7 3.52941 7 3.52941 7M4.23529 6.61111C3.88235 6.61111 3.52941 7 3.52941 7 3.52941 7 3.88235 6.61111 4.23529 6.61111M4.23529 6.61111C4.23529 6.61111 4.23529 6.61111 4.23529 6.61111 4.23529 6.61111 4.23529 6.61111 4.23529 6.61111M4.23529 6.61111C4.23529 6.61111 4.23529 6.61111 4.23529 6.61111 4.23529 6.61111 4.23529 6.61111 4.23529 6.61111M4.94118 6.22222C4.94118 6.22222 4.94118 6.22222 4.94118 6.22222 4.94118 6.22222 4.94118 6.22222 4.94118 6.22222M6 3.88889C6 4.66667 5.64706 5.05556 5.29412 5.83333 5.29412 5.83333 4.94118 5.83333 4.94118 6.22222 5.64706 5.44444 6 4.66667 6 3.88889M6 3.88889C6 3.88889 6 3.88889 6 3.88889 6 3.88889 6 3.88889 6 3.88889M6 3.88889C6 3.88889 6 3.88889 6 3.88889 6 3.88889 6 3.88889 6 3.88889M6 3.88889C6 3.88889 6 3.88889 6 3.88889 6 3.88889 6 3.88889 6 3.88889M0 3.88889C0 4.27778 0 5.05556 0.352941 5.44444 0.705882 5.83333 0.705882 6.22222 1.05882 6.22222 1.76471 6.61111 2.11765 7 2.47059 7 2.11765 7 1.41176 6.61111 1.05882 6.22222 0.352941 5.44444 0 4.66667 0 3.88889M6 3.88889C6 3.88889 6 3.88889 6 3.88889 6 3.88889 6 3.88889 6 3.88889M6 3.5C6 3.5 6 3.5 6 3.5 6 3.5 6 3.5 6 3.5M6 3.5C6 3.5 6 3.5 6 3.5 6 3.5 6 3.5 6 3.5M6 3.5C6 3.5 6 3.5 6 3.5 6 3.5 6 3.5 6 3.5M6 3.5C6 3.5 6 3.5 6 3.5 6 3.5 6 3.5 6 3.5M0 2.72222C0 2.72222 0 2.72222 0 2.72222 0 2.72222 0 2.72222 0 2.72222M0 2.72222C0 2.72222 0 2.72222 0 2.72222 0 2.72222 0 2.72222 0 2.72222M0 2.72222C0 2.72222 0 2.72222 0 2.72222 0 2.72222 0 2.72222 0 2.72222M0 2.72222C0 2.72222 0 2.72222 0 2.72222 0 2.72222 0 2.72222 0 2.72222M0 2.72222C0 2.72222 0 2.72222 0 2.72222 0 2.72222 0 2.72222 0 2.72222M0 2.33333C0 2.33333 0 2.72222 0 2.72222 0 2.72222 0 2.33333 0 2.33333M0 2.33333C0 2.33333 0 2.33333 0 2.33333 0 2.33333 0 2.33333 0 2.33333M0 2.33333C0 2.33333 0 2.33333 0 2.33333 0 2.33333 0 2.33333 0 2.33333M0 2.33333C0 2.33333 0 2.33333 0 2.33333 0 2.33333 0 2.33333 0 2.33333M0 2.33333C0 2.33333 0 2.33333 0 2.33333 0 2.33333 0 2.33333 0 2.33333M0 2.33333C0 2.33333 0 2.33333 0 2.33333 0 2.33333 0 2.33333 0 2.33333M0 2.33333C0 2.33333 0 2.33333 0 2.33333 0 2.33333 0 2.33333 0 2.33333M0 2.33333C0 2.33333 0 2.33333 0 2.33333 0 2.33333 0 2.33333 0 2.33333M0 1.94444C0 1.94444 0 1.94444 0 1.94444 0 1.94444 0 1.94444 0 1.94444M0.352941 1.94444C0.352941 1.94444 0.352941 1.94444 0.352941 1.94444 0.352941 1.94444 0.352941 1.94444 0.352941 1.94444M0.352941 1.94444C0.352941 1.94444 0.352941 1.94444 0.352941 1.94444 0.352941 1.94444 0.352941 1.94444 0.352941 1.94444M0.705882 1.55556C0.352941 1.55556 0.352941 1.55556 0.352941 1.94444 0.352941 1.94444 0.352941 1.55556 0.705882 1.55556 0.705882 1.55556 0.705882 1.55556 0.705882 1.55556M0.705882 1.16667C0.705882 1.16667 0.705882 1.16667 0.705882 1.16667 0.705882 1.16667 0.705882 1.16667 0.705882 1.16667M0.705882 1.16667C0.705882 1.16667 0.705882 1.16667 0.705882 1.16667 0.705882 1.16667 0.705882 1.16667 0.705882 1.16667M1.76471 0.388889C1.76471 0.388889 1.76471 0.388889 1.76471 0.388889 1.76471 0.388889 1.76471 0.388889 1.76471 0.388889M1.76471 0.388889C1.76471 0.388889 1.76471 0.388889 1.76471 0.388889 1.76471 0.388889 1.76471 0.388889 1.76471 0.388889M2.47059 0.388889C2.47059 0.388889 2.11765 0.388889 1.76471 0.388889 2.11765 0.388889 2.47059 0.388889 2.47059 0.388889M3.17647 0.388889C3.88235 0.388889 4.23529 0.388889 4.94118 0.777778 5.64706 1.55556 6 2.33333 6 3.5 6 3.11111 6 2.72222 5.64706 2.33333 5.64706 1.55556 4.94118 0.777778 4.23529 0.388889 3.88235 0.388889 3.52941 0.388889 3.17647 0.388889M2.47059 0.388889C2.47059 0.388889 2.47059 0.388889 2.47059 0.388889 2.47059 0.388889 2.47059 0.388889 2.47059 0.388889M2.82353 0C2.82353 0 2.82353 0 2.82353 0 2.82353 0 2.82353 0 2.82353 0" fill="#A6B1CC" fill-rule="evenodd" transform="matrix(-1 0 0 1 742 250)"/><path d="M2.82353 0C2.82353 0 2.82353 0 2.82353 0 2.82353 0 2.82353 0 2.82353 0 2.82353 0 2.47059 0 2.47059 0.388889 2.47059 0.388889 2.47059 0.388889 2.47059 0.388889 2.47059 0.388889 2.47059 0.388889 2.47059 0.388889 2.47059 0.388889 2.11765 0.388889 1.76471 0.388889 1.76471 0.388889 1.76471 0.388889 1.76471 0.388889 1.76471 0.388889 1.76471 0.388889 1.76471 0.388889 1.76471 0.388889 1.76471 0.388889 1.76471 0.388889 1.76471 0.388889 1.76471 0.388889 1.76471 0.388889 1.41176 0.777778 1.05882 0.777778 0.705882 1.16667 0.705882 1.16667 0.705882 1.16667 0.705882 1.16667 0.705882 1.16667 0.705882 1.16667 0.705882 1.16667 0.705882 1.16667 0.705882 1.16667 0.705882 1.16667 0.705882 1.16667 0.705882 1.16667 0.705882 1.55556 0.705882 1.55556 0.705882 1.55556 0.705882 1.55556 0.352941 1.55556 0.352941 1.94444 0.352941 1.94444 0.352941 1.94444 0.352941 1.94444 0.352941 1.94444 0.352941 1.94444 0.352941 1.94444 0.352941 1.94444 0.352941 1.94444 0.352941 1.94444 0.352941 1.94444 0.352941 1.94444 0.352941 1.94444 0.352941 1.94444 0.352941 1.94444 0.352941 1.94444 0 1.94444 0 1.94444 0 1.94444 0 1.94444 0 1.94444 0 2.33333 0 2.33333 0 2.33333 0 2.33333 0 2.33333 0 2.33333 0 2.33333 0 2.33333 0 2.33333 0 2.33333 0 2.33333 0 2.33333 0 2.33333 0 2.33333 0 2.33333 0 2.33333 0 2.33333 0 2.33333 0 2.33333 0 2.33333 0 2.33333 0 2.33333 0 2.33333 0 2.33333 0 2.33333 0 2.33333 0 2.33333 0 2.33333 0 2.33333 0 2.33333 0 2.33333 0 2.33333 0 2.33333 0 2.33333 0 2.33333 0 2.33333 0 2.33333 0 2.33333 0 2.33333 0 2.33333 0 2.33333 0 2.33333 0 2.33333 0 2.33333 0 2.33333 0 2.72222 0 2.72222 0 2.72222 0 2.72222 0 2.72222 0 2.72222 0 2.72222 0 2.72222 0 2.72222 0 2.72222 0 2.72222 0 2.72222 0 2.72222 0 2.72222 0 2.72222 0 2.72222 0 2.72222 0 2.72222 0 2.72222 0 2.72222 0 2.72222 0 2.72222 0 2.72222 0 2.72222 0 2.72222 0 2.72222 0 2.72222 0 2.72222 0 2.72222 0 2.72222 0 2.72222 0 2.72222 0 3.11111 0 3.5 0 3.88889 0 4.66667 0.352941 5.44444 1.05882 6.22222 1.41176 6.61111 2.11765 7 2.47059 7 2.82353 7 2.82353 7 2.82353 7 3.17647 7 3.17647 7 3.52941 7 3.52941 7 3.52941 7 3.52941 7 3.52941 7 3.52941 7 3.52941 7 3.52941 7 3.52941 7 3.52941 7 3.52941 7 3.52941 7 3.52941 7 3.52941 7 3.88235 6.61111 4.23529 6.61111 4.23529 6.61111 4.23529 6.61111 4.23529 6.61111 4.23529 6.61111 4.23529 6.61111 4.23529 6.61111 4.23529 6.61111 4.23529 6.61111 4.23529 6.61111 4.23529 6.61111 4.23529 6.61111 4.23529 6.61111 4.58824 6.61111 4.58824 6.22222 4.94118 6.22222 4.94118 6.22222 4.94118 6.22222 4.94118 6.22222 4.94118 6.22222 4.94118 6.22222 4.94118 6.22222 4.94118 5.83333 5.29412 5.83333 5.29412 5.83333 5.64706 5.05556 6 4.66667 6 3.88889 6 3.88889 6 3.88889 6 3.88889 6 3.88889 6 3.88889 6 3.88889 6 3.88889 6 3.88889 6 3.88889 6 3.88889 6 3.88889 6 3.88889 6 3.88889 6 3.88889 6 3.88889 6 3.88889 6 3.88889 6 3.88889 6 3.88889 6 3.88889 6 3.88889 6 3.88889 6 3.88889 6 3.88889 6 3.88889 6 3.88889 6 3.5 6 3.5 6 3.5 6 3.5 6 3.5 6 3.5 6 3.5 6 3.5 6 3.5 6 3.5 6 3.5 6 3.5 6 3.5 6 3.5 6 3.5 6 3.5 6 3.5 6 3.5 6 3.5 6 3.5 6 3.5 6 3.5 6 3.5 6 3.5 6 3.5 6 2.33333 5.64706 1.55556 4.94118 0.777778 4.23529 0.388889 3.88235 0.388889 3.17647 0.388889 3.17647 0 3.17647 0 2.82353 0" fill="#E8505B" fill-rule="evenodd" transform="matrix(-1 0 0 1 742 250)"/><path d="M0 1C-1.27313e-16 0.447715 0.223858 0 0.5 0 0.776142 -2.54627e-16 1 0.447715 1 1 1 1.55228 0.776142 2 0.5 2 0.223858 2 -1.9097e-16 1.55228 0 1Z" fill="#E22230" fill-rule="evenodd" transform="matrix(-1 0 0 1 739 251)"/><path d="M12 36C10.125 36 10.125 36 10.125 36 7.125 36 4.125 34.8 2.25 32.4 0.75 30.4 0 28 0 25.2 0 0 0 0 0 0 3 0 3 0 3 0 3 25.2 3 25.2 3 25.2 3 27.2 3.75 28.8 4.5 30 6 32 7.875 32.8 10.125 32.8 12 32.8 12 32.8 12 32.8L12 36Z" fill="#263238" fill-rule="evenodd" transform="matrix(-1 0 0 1 752 257)"/><path d="M1.97917 341C1.1875 341 0.791667 341 0.791667 340.604 0 339.813 0 339.022 0.791667 338.231 15.8333 323.594 15.8333 323.594 15.8333 323.594 15.8333 1.58237 15.8333 1.58237 15.8333 1.58237 15.8333 0.791183 16.625 0 17.4167 0 18.2083 0 19 0.791183 19 1.58237 19 324.385 19 324.385 19 324.385 19 324.781 19 325.176 18.6042 325.176 2.77083 340.604 2.77083 340.604 2.77083 340.604 2.77083 341 2.375 341 1.97917 341" fill="#263238" fill-rule="evenodd" transform="matrix(-1 0 0 1 757 277)"/><path d="M16.3636 19C15.9545 19 15.5455 19 15.1364 18.5957 3.27273 6.06383 3.27273 6.06383 3.27273 6.06383 3.27273 16.1702 3.27273 16.1702 3.27273 16.1702 3.27273 16.9787 2.45455 17.7872 1.63636 17.7872 0.818182 17.7872 0 16.9787 0 16.1702 0 2.02128 0 2.02128 0 2.02128 0 1.21277 0.409091 0.404255 1.22727 0.404255 1.63636 0 2.45455 0.404255 2.86364 0.808511 17.5909 16.1702 17.5909 16.1702 17.5909 16.1702 18 16.9787 18 17.7872 17.5909 18.5957 17.1818 19 16.7727 19 16.3636 19Z" fill="#263238" fill-rule="evenodd" transform="matrix(-1 0 0 1 741 599)"/><path d="M628 165C628 161.134 631.134 158 635 158 638.866 158 642 161.134 642 165 642 168.866 638.866 172 635 172 631.134 172 628 168.866 628 165Z" fill="#E22230" fill-rule="evenodd"/><path d="M2.33333 34 0 34 0 0 34 0 34 2.33333 2.33333 2.33333 2.33333 34Z" fill="#E22230" fill-rule="evenodd" transform="matrix(-1 0 0 1 1027 146)"/><path d="M34 34 0 34 0 0 2.33333 0 2.33333 31.4752 34 31.4752 34 34Z" fill="#E22230" fill-rule="evenodd" transform="matrix(-1 0 0 1 1027 355)"/><path d="M34 34 31.6667 34 31.6667 2.33333 0 2.33333 0 0 34 0 34 34Z" fill="#E22230" fill-rule="evenodd" transform="matrix(-1 0 0 1 613 146)"/><path d="M34 34 0 34 0 31.4752 31.6667 31.4752 31.6667 0 34 0 34 34Z" fill="#E22230" fill-rule="evenodd" transform="matrix(-1 0 0 1 613 355)"/><path d="M0 0 0 264 467 264 467 0 0 0ZM464.666 261.664 2.33417 261.664 2.33417 2.50316 464.666 2.50316 464.666 261.664Z" fill="#407BFF" fill-rule="evenodd" transform="matrix(-1 0 0 1 1037 136)"/><path d="M2.33417 2.50316 2.33417 2.50316 464.666 2.50316 464.666 261.664 299.107 261.664 295.939 261.664 203.406 261.664 144.051 261.664 106.871 261.664 104.371 261.664 2.33417 261.664 2.33417 2.50316ZM467 0 240.919 0 240.586 0 221.913 0 221.579 0 0 0 0 264 467 264 467 0Z" fill="#A0BDFF" fill-rule="evenodd" transform="matrix(-1 0 0 1 1037 136)"/><path d="M2.33417 2.50316 2.33417 2.50316 464.666 2.50316 464.666 261.664 299.107 261.664 295.939 261.664 203.406 261.664 144.051 261.664 106.871 261.664 104.371 261.664 2.33417 261.664 2.33417 2.50316M467 0 240.919 0 240.586 0 221.913 0 221.579 0 0 0 0 264 467 264 467 0" fill="#E8505B" fill-rule="evenodd" transform="matrix(-1 0 0 1 1037 136)"/><path d="M593.231 167.667C592.077 167.667 592.077 167.667 592.077 167.667 592.077 172 592.077 172 592.077 172 589 172 589 172 589 172 589 159 589 159 589 159 594.385 159 594.385 159 594.385 159 596.692 159 598.615 160.97 598.615 163.333 598.615 164.909 597.846 166.485 596.308 167.273 599 172 599 172 599 172 595.923 172 595.923 172 595.923 172L593.231 167.667ZM592.077 164.909C594.385 164.909 594.385 164.909 594.385 164.909 595.154 164.909 595.538 164.121 595.538 163.333 595.538 162.545 595.154 161.758 594.385 161.758 592.077 161.758 592.077 161.758 592.077 161.758L592.077 164.909Z" fill="#263238" fill-rule="evenodd"/><path d="M610 169.333 610 172 602 172 602 159 610 159 610 161.833 605.04 161.833 605.04 163.833 609.68 163.833 609.68 167 605.04 167 605.04 169.333 610 169.333Z" fill="#263238" fill-rule="evenodd"/><path d="M613 165.8C613 161.8 616 159 619.75 159 622 159 623.875 160.2 625 162.2 622.75 163.4 622.75 163.4 622.75 163.4 622 162.6 620.875 161.8 619.75 161.8 617.5 161.8 616 163.4 616 165.8 616 168.2 617.5 169.8 619.75 169.8 620.875 169.8 622 169.4 622.75 168.2 625 169.8 625 169.8 625 169.8 623.875 171.8 622 173 619.75 173 616 173 613 169.8 613 165.8Z" fill="#263238" fill-rule="evenodd"/></g></svg>