<svg width="1280" height="720" xmlns="http://www.w3.org/2000/svg" xmlns:xlink="http://www.w3.org/1999/xlink" overflow="hidden"><defs><clipPath id="clip0"><rect x="0" y="0" width="1280" height="720"/></clipPath></defs><g clip-path="url(#clip0)"><rect x="0" y="0" width="1280" height="720" fill="#FFFFFF"/><path d="M963.309 0 1280 0 1280 720 701 720 963.309 0Z" fill="#FEE2DC" fill-rule="evenodd"/><path d="M688.632 377.692C689.105 377.846 689.5 377.923 689.974 378 689.816 377 690.053 375.769 691 374.462 690.605 374 690.211 373.462 689.816 373 689.026 374.077 688 375.769 688.632 377.692Z" fill="#F7CC7F" fill-rule="evenodd"/><path d="M698 379.291C696.313 377.272 694.542 375.097 692.855 373 692.687 373 692.602 373.078 692.602 373.078 691.928 373.388 691.928 373.466 691.928 373.466 691.506 373.777 691.169 374.165 691.169 374.087 691.169 374.243 691.084 374.32 691 374.398 692.94 376.728 694.88 378.981 696.566 381 697.157 380.534 697.663 379.913 698 379.291Z" fill="#F7CC7F" fill-rule="evenodd"/><path d="M702.691 390.259C702.691 390.259 703.629 392.533 702.619 393.832 702.619 393.832 701.464 395.376 700.526 393.345 700.526 393.345 700.454 393.183 700.454 393.183 700.237 392.858 699.876 392.777 699.588 393.02 699.299 393.264 699.227 393.67 699.371 394.076 699.443 394.239 699.588 394.563 699.948 394.97 702.258 397 705 394.401 704.639 391.396 704.423 389.528 702.258 385.629 699.299 381 698.866 381.569 698.433 382.056 698 382.543 700.454 386.198 702.33 389.041 702.691 390.259Z" fill="#F7CC7F" fill-rule="evenodd"/><path d="M696 380.913C696.568 381.696 697.054 382.391 697.541 383 698.027 382.478 698.513 381.957 699 381.348 698.432 380.565 697.946 379.783 697.378 379 697.054 379.696 696.568 380.391 696 380.913Z" fill="#F7CC7F" fill-rule="evenodd"/><path d="M690.279 373C690.771 372.292 691.262 371.899 691.262 371.899 691.508 371.742 691.754 371.584 692 371.427 690.525 369.539 689.131 367.73 687.82 366 687.492 367.022 687.164 367.966 687 368.831 688.066 370.169 689.131 371.584 690.279 373Z" fill="#F7CC7F" fill-rule="evenodd"/><path d="M685 366C685.73 366.917 686.459 368 687.189 369 687.351 368.083 687.676 367.083 688 366 687.27 364.917 686.541 363.917 685.892 363 685.649 364 685.324 365 685 366Z" fill="#F7CC7F" fill-rule="evenodd"/><path d="M689.236 382.126C688.271 381.652 684.251 378.885 686.744 368.846 686.02 367.897 685.297 366.87 684.573 366 684.251 367.107 683.849 368.213 683.528 369.32 682.724 372.008 682 374.854 682.402 377.621 682.884 381.257 685.618 383.866 688.915 385.13 690.603 385.842 692.533 386 694.382 385.368 695.749 384.972 696.955 384.182 698 383.154 697.518 382.601 697.035 381.968 696.472 381.257 694.784 382.917 692.211 383.628 689.236 382.126Z" fill="#F7CC7F" fill-rule="evenodd"/><path d="M685.593 353.238C683.444 352.077 679 352 679.37 356.022 679.518 357.878 681.815 361.591 684.778 366 685.074 365.072 685.37 364.144 685.593 363.215 682.63 358.652 681 355.403 682.704 355.171 683.667 355.017 684.926 355.558 685.741 356.796 686.556 358.111 686.333 359.967 686.037 361.514 685.889 362.055 685.741 362.597 685.593 363.215 686.185 364.066 686.852 364.994 687.518 366 687.593 365.536 687.741 365.149 687.889 364.685 688.852 361.901 689 358.42 688.333 356.564 688.333 356.564 687.593 354.32 685.593 353.238Z" fill="#F7CC7F" fill-rule="evenodd"/><path d="M693.8 372.68C693.725 372.754 694.625 372.457 695.525 372.606 695.15 372.531 697.325 372.531 698.15 374.983 698.6 376.171 698.45 377.657 697.775 378.994 698.3 379.663 698.75 380.331 699.275 381 699.275 380.926 699.35 380.851 699.425 380.777 704 374.611 697.25 368 692 371.417 692.375 371.937 692.75 372.457 693.2 372.977 693.35 372.829 693.65 372.754 693.8 372.68Z" fill="#F7CC7F" fill-rule="evenodd"/><path d="M690 372.538C690.405 373 690.811 373.538 691.216 374 691.297 373.923 691.378 373.846 691.378 373.692 691.378 373.769 691.703 373.385 692.108 373.077 692.108 373.077 692.108 373 692.757 372.692 692.757 372.692 692.838 372.615 693 372.615 692.513 372.077 692.108 371.538 691.703 371 691.459 371.154 691.216 371.308 690.973 371.462 690.973 371.462 690.487 371.846 690 372.538Z" fill="#F7CC7F" fill-rule="evenodd"/><path d="M691.828 376.288C692.844 377.348 693 378.712 692.297 379.318 691.516 380 690.109 379.773 689.172 378.712 688.156 377.727 688 376.364 688.703 375.682 689.484 375 690.891 375.303 691.828 376.288Z" fill="#F7CC7F" fill-rule="evenodd"/><path d="M701.828 391.288C702.766 392.348 703 393.712 702.219 394.318 701.516 395 700.109 394.773 699.172 393.712 698.156 392.727 698 391.364 698.703 390.682 699.484 390 700.813 390.303 701.828 391.288Z" fill="#F7CC7F" fill-rule="evenodd"/><rect x="950" y="436" width="41" height="82" fill="#F499A3"/><path d="M991 479.076C990.62 479.076 990.239 479 989.859 479 950 479 950 479 950 479 950 518 950 518 950 518 991 518 991 518 991 518L991 479.076Z" fill="#D3172D" fill-rule="evenodd"/><path d="M899 578.811C899 530.266 899 530.266 899 530.266 899 506.913 917.903 488 941.168 488 991.832 488 991.832 488 991.832 488 1015.1 488 1034 506.913 1034 530.266 1034 578.811 1034 578.811 1034 578.811 1034 602.088 1015.1 621 991.832 621 941.168 621 941.168 621 941.168 621 917.903 621 899 602.088 899 578.811Z" fill="#F499A3" fill-rule="evenodd"/><path d="M916 574.769C916 536.231 916 536.231 916 536.231 916 518.462 930.363 504 948.011 504 984.989 504 984.989 504 984.989 504 1002.64 504 1017 518.462 1017 536.231 1017 574.769 1017 574.769 1017 574.769 1017 592.538 1002.64 607 984.989 607 948.011 607 948.011 607 948.011 607 930.363 607 916 592.538 916 574.769Z" fill="#D3172D" fill-rule="evenodd"/><path d="M947 535.5C947 533.567 948.567 532 950.5 532 952.433 532 954 533.567 954 535.5 954 537.433 952.433 539 950.5 539 948.567 539 947 537.433 947 535.5Z" fill="#F47458" fill-rule="evenodd"/><path d="M962 535.5C962 533.567 963.343 532 965 532 966.657 532 968 533.567 968 535.5 968 537.433 966.657 539 965 539 963.343 539 962 537.433 962 535.5Z" fill="#F47458" fill-rule="evenodd"/><path d="M976 535.5C976 533.567 977.567 532 979.5 532 981.433 532 983 533.567 983 535.5 983 537.433 981.433 539 979.5 539 977.567 539 976 537.433 976 535.5Z" fill="#F47458" fill-rule="evenodd"/><path d="M947 547.5C947 545.567 948.567 544 950.5 544 952.433 544 954 545.567 954 547.5 954 549.433 952.433 551 950.5 551 948.567 551 947 549.433 947 547.5Z" fill="#F47458" fill-rule="evenodd"/><path d="M962 547.5C962 545.567 963.343 544 965 544 966.657 544 968 545.567 968 547.5 968 549.433 966.657 551 965 551 963.343 551 962 549.433 962 547.5Z" fill="#F47458" fill-rule="evenodd"/><path d="M976 547.5C976 545.567 977.567 544 979.5 544 981.433 544 983 545.567 983 547.5 983 549.433 981.433 551 979.5 551 977.567 551 976 549.433 976 547.5Z" fill="#F47458" fill-rule="evenodd"/><path d="M947 559.5C947 557.567 948.567 556 950.5 556 952.433 556 954 557.567 954 559.5 954 561.433 952.433 563 950.5 563 948.567 563 947 561.433 947 559.5Z" fill="#F47458" fill-rule="evenodd"/><path d="M962 559.5C962 557.567 963.343 556 965 556 966.657 556 968 557.567 968 559.5 968 561.433 966.657 563 965 563 963.343 563 962 561.433 962 559.5Z" fill="#F47458" fill-rule="evenodd"/><path d="M976 559.5C976 557.567 977.567 556 979.5 556 981.433 556 983 557.567 983 559.5 983 561.433 981.433 563 979.5 563 977.567 563 976 561.433 976 559.5Z" fill="#F47458" fill-rule="evenodd"/><path d="M782 621.5C782 621.5 782 621.5 782 621.5 782 622.325 782.848 623 783.851 623 1242.15 623 1242.15 623 1242.15 623 1243.15 623 1244 622.325 1244 621.5 1244 621.5 1244 621.5 1244 621.5 1244 620.675 1243.15 620 1242.15 620 783.851 620 783.851 620 783.851 620 782.848 620 782 620.675 782 621.5Z" fill="#13375B" fill-rule="evenodd"/><path d="M899 620.536C899 620.536 941.191 622 950.422 617.532 959.73 613.142 950.728 607.288 950.728 607.288 950.728 607.288 970.793 602.435 972.09 596.119 973.387 589.803 963.774 590.804 963.774 590.804 963.774 590.804 983 577.247 980.253 573.088 975.142 565.385 953.398 579.019 953.398 579.019 953.398 579.019 960.646 571.778 955.534 569.082 947.828 565 936.689 584.565 936.689 584.565 936.689 584.565 937.223 579.789 931.349 579.558 920.744 579.019 899 620.536 899 620.536Z" fill="#466EB6" fill-rule="evenodd"/><path d="M930.918 575.615C936.887 575.923 936.732 584.077 936.732 584.077 936.732 584.077 948.129 561 955.959 565.077 961.153 567.769 955.494 577.462 955.494 577.462 955.494 577.462 975.806 564.923 981 572.615 902 617 902 617 902 617 904.558 612.154 920.839 575.154 930.918 575.615Z" fill="#355389" fill-rule="evenodd"/><path d="M897.281 620C897.281 620 933.591 594.632 938.855 583.443 944.042 572.33 934.049 573.25 934.049 573.25 934.049 573.25 949 553.477 945.415 546.656 941.906 539.835 933.744 548.112 933.744 548.112 933.744 548.112 941.296 520.905 935.574 519.219 925.048 516 914.673 550.411 914.673 550.411 914.673 550.411 910.707 531.405 903.918 532.784 893.772 534.93 903.918 563.057 903.918 563.057 903.918 563.057 900.943 553.86 895.222 558.152 885 565.739 897.281 620 897.281 620Z" fill="#466EB6" fill-rule="evenodd"/><path d="M884.773 558.801C891.303 555.722 892.625 549.255 892.625 549.255 892.625 549.255 892.702 533.32 903.041 531.165 909.881 529.702 914.701 542.558 914.701 542.558 914.701 542.558 925.273 516 936 519.233 896.9 620 896.9 620 896.9 620 895.501 613.611 877 562.419 884.773 558.801Z" fill="#355389" fill-rule="evenodd"/><path d="M722.748 625C722.748 625 635.031 578.97 619.384 554.914 603.737 530.857 622.852 528.853 622.852 528.853 622.852 528.853 582 488.065 588.012 471.18 594.102 454.371 615.607 470.794 615.607 470.794 615.607 470.794 589.477 410.577 602.118 404.794 625.627 394 657.539 458.15 657.539 458.15 657.539 458.15 650.91 430.393 666.942 431.472 691.223 433.168 689.373 495.776 689.373 495.776 689.373 495.776 692.456 471.797 706.947 479.815 733 494.157 722.748 625 722.748 625Z" fill="#355389" fill-rule="evenodd"/><path d="M712.447 470.178C701.094 463.702 689.508 482.052 689.508 482.052 689.508 482.052 691.285 433.169 666.955 431.472 650.89 430.393 657.533 458.15 657.533 458.15 657.533 458.15 625.557 394 602 404.794 723.028 624 723.028 624 723.028 624 724.11 608.811 735 483.055 712.447 470.178Z" fill="#466EB6" fill-rule="evenodd"/><path d="M722 624.687C722 624.687 646.146 632 626.779 623.148 607.413 614.219 621.784 604.212 621.784 604.212 621.784 604.212 579.976 594.821 577.056 581.813 574.212 568.804 594.194 570.651 594.194 570.651 594.194 570.651 554 543.094 559.61 534.473 570.062 518.386 615.559 546.019 615.559 546.019 615.559 546.019 600.342 531.24 610.871 525.544 626.779 517 650.45 557.027 650.45 557.027 650.45 557.027 649.144 547.328 661.44 546.558 683.497 545.25 722 624.687 722 624.687Z" fill="#355389" fill-rule="evenodd"/><path d="M661.761 538.889C649.436 539.661 650.052 556.498 650.052 556.498 650.052 556.498 626.095 509 610.149 517.573 599.596 523.288 611.305 543.291 611.305 543.291 611.305 543.291 569.476 517.727 559 533.869 722 624 722 624 722 624 716.608 614.037 682.405 537.653 661.761 538.889Z" fill="#466EB6" fill-rule="evenodd"/><path d="M1053.05 306.653C1051.02 313.803 1043.81 318 1036.89 315.902 1029.98 313.881 1026 306.42 1027.95 299.269 1029.91 292.119 1037.12 288 1044.03 290.021 1050.94 292.041 1055 299.503 1053.05 306.653Z" fill="#F7CC7F" fill-rule="evenodd"/><path d="M1033.09 303C1032 306.828 1034.27 310.813 1038.09 311.906 1041.92 313 1045.91 310.813 1047 306.984L1033.09 303Z" fill="#EFEFEF" fill-rule="evenodd"/><path d="M985.293 222.614 977.863 222 976.859 228.964 969.43 228.759 967.622 235.416 962 236.133 962.402 239 969.831 237.976 971.538 231.729 979.269 232.036 980.273 225.072 987 225.687 985.293 222.614Z" fill="#F48C7F" fill-rule="evenodd"/><path d="M705.103 312 704.69 316.47 697.034 316.768 695.586 323.225 690 324.318 690.517 327 698.172 325.609 699.517 319.45 707.379 319.252 708 312.497 705.103 312Z" fill="#F48C7F" fill-rule="evenodd"/><path d="M899.484 621C798.439 621 798.439 621 798.439 621 793.178 621 789 616.769 789 611.538 789 415.385 789 415.385 789 415.385 789 410.231 793.178 406 798.439 406 899.484 406 899.484 406 899.484 406 904.745 406 909 410.231 909 415.385 909 611.538 909 611.538 909 611.538 909 616.769 904.745 621 899.484 621Z" fill="#184655" fill-rule="evenodd"/><path d="M798.843 613C797.845 613 797 612.23 797 611.152 797 414.848 797 414.848 797 414.848 797 413.847 797.845 413 798.843 413 899.157 413 899.157 413 899.157 413 900.155 413 901 413.847 901 414.848 901 611.152 901 611.152 901 611.152 901 612.23 900.155 613 899.157 613L798.843 613Z" fill="#3C8F7C" fill-rule="evenodd"/><path d="M833 442.5C833 432.283 841.059 424 851 424 860.941 424 869 432.283 869 442.5 869 452.717 860.941 461 851 461 841.059 461 833 452.717 833 442.5Z" fill="#355389" fill-rule="evenodd"/><path d="M845 442.5C845 438.91 847.91 436 851.5 436 855.09 436 858 438.91 858 442.5 858 446.09 855.09 449 851.5 449 847.91 449 845 446.09 845 442.5Z" fill="#184655" fill-rule="evenodd"/><path d="M825 513C825 498.641 836.641 487 851 487 865.359 487 877 498.641 877 513 877 527.359 865.359 539 851 539 836.641 539 825 527.359 825 513Z" fill="#355389" fill-rule="evenodd"/><path d="M842 513C842 508.029 846.029 504 851 504 855.971 504 860 508.029 860 513 860 517.971 855.971 522 851 522 846.029 522 842 517.971 842 513Z" fill="#184655" fill-rule="evenodd"/><path d="M823 579C823 564.641 834.641 553 849 553 863.359 553 875 564.641 875 579 875 593.359 863.359 605 849 605 834.641 605 823 593.359 823 579Z" fill="#355389" fill-rule="evenodd"/><path d="M840 579C840 574.029 844.029 570 849 570 853.971 570 858 574.029 858 579 858 583.971 853.971 588 849 588 844.029 588 840 583.971 840 579Z" fill="#184655" fill-rule="evenodd"/><path d="M1113.08 316.103C1119 316.723 1119 316.723 1119 316.723 1119.23 316.723 1119.54 316.956 1119.69 317.188 1122.46 322.303 1122.46 322.303 1122.46 322.303 1122.85 323 1123.85 322.923 1124.15 322.225 1126.54 316.956 1126.54 316.956 1126.54 316.956 1126.62 316.646 1126.92 316.491 1127.23 316.413 1133 315.328 1133 315.328 1133 315.328 1133.77 315.173 1134 314.244 1133.46 313.779 1129.08 309.827 1129.08 309.827 1129.08 309.827 1128.85 309.672 1128.69 309.362 1128.77 309.052 1129.54 303.24 1129.54 303.24 1129.54 303.24 1129.62 302.542 1128.77 302 1128.15 302.387 1123.08 305.332 1123.08 305.332 1123.08 305.332 1122.77 305.41 1122.46 305.487 1122.15 305.332 1116.85 302.852 1116.85 302.852 1116.85 302.852 1116.15 302.542 1115.38 303.085 1115.54 303.86 1116.85 309.517 1116.85 309.517 1116.85 309.517 1116.85 309.827 1116.77 310.137 1116.62 310.369 1112.54 314.631 1112.54 314.631 1112.54 314.631 1112 315.173 1112.31 316.026 1113.08 316.103Z" fill="#96D9C9" fill-rule="evenodd"/><path d="M772.154 381.181C778 381.723 778 381.723 778 381.723 778.308 381.801 778.538 381.956 778.692 382.188 781.538 387.38 781.538 387.38 781.538 387.38 781.923 388 782.846 388 783.154 387.303 785.538 381.956 785.538 381.956 785.538 381.956 785.692 381.646 785.923 381.491 786.231 381.413 792 380.328 792 380.328 792 380.328 792.769 380.173 793 379.321 792.462 378.779 788.077 374.904 788.077 374.904 788.077 374.904 787.846 374.672 787.769 374.362 787.769 374.129 788.538 368.317 788.538 368.317 788.538 368.317 788.615 367.542 787.846 367 787.154 367.387 782.077 370.332 782.077 370.332 782.077 370.332 781.846 370.487 781.462 370.487 781.231 370.332 775.923 367.852 775.923 367.852 775.923 367.852 775.231 367.542 774.462 368.162 774.615 368.86 775.846 374.594 775.846 374.594 775.846 374.594 775.923 374.827 775.846 375.137 775.615 375.369 771.538 379.631 771.538 379.631 771.538 379.631 771 380.173 771.385 381.103 772.154 381.181Z" fill="#F7CC7F" fill-rule="evenodd"/><path d="M1109.08 377.156C1114.92 377.778 1114.92 377.778 1114.92 377.778 1115.23 377.778 1115.54 377.933 1115.69 378.244 1118.46 383.378 1118.46 383.378 1118.46 383.378 1118.85 384 1119.85 384 1120.15 383.3 1122.54 377.933 1122.54 377.933 1122.54 377.933 1122.62 377.7 1122.92 377.467 1123.15 377.389 1129 376.378 1129 376.378 1129 376.378 1129.69 376.222 1130 375.289 1129.46 374.744 1125 370.856 1125 370.856 1125 370.856 1124.85 370.622 1124.69 370.389 1124.77 370.078 1125.54 364.244 1125.54 364.244 1125.54 364.244 1125.62 363.467 1124.77 363 1124.15 363.311 1119 366.267 1119 366.267 1119 366.267 1118.77 366.422 1118.46 366.422 1118.15 366.344 1112.85 363.778 1112.85 363.778 1112.85 363.778 1112.15 363.467 1111.38 364.089 1111.54 364.789 1112.77 370.544 1112.77 370.544 1112.77 370.544 1112.85 370.856 1112.77 371.167 1112.54 371.322 1108.54 375.6 1108.54 375.6 1108.54 375.6 1108 376.144 1108.31 377.078 1109.08 377.156Z" fill="#F7CC7F" fill-rule="evenodd"/><path d="M1084.68 489C1084.45 489.077 1088.1 493.795 1091.6 497.198 1094.49 500.833 1097.15 505.087 1098.06 509.805 1099.43 516.92 1098.29 552.188 1099.5 554.663 1109.92 565.104 1117.52 591.168 1119.64 599.134 1120.02 600.681 1120.86 602.073 1122 603.156 1122 603.156 1122 603.156 1122 603.156 1121.54 612.128 1121.54 612.128 1121.54 612.128 1116.38 617 1116.38 617 1116.38 617 1116.38 617 1117.52 609.653 1115.24 604.239 1115.24 604.239 1088.94 563.712 1087.34 560.618 1084.38 551.801 1073.51 506.634 1073.51 506.634 1071 496.193 1071 496.193 1071 496.193 1071 496.193 1084.68 489 1084.68 489Z" fill="#F7A491" fill-rule="evenodd"/><path d="M1128 605.908C1128 605.908 1124.84 610.904 1124.54 612.842 1124.32 614.781 1122.63 619.18 1120.72 619.404 1120.28 619.478 1113 620 1113.07 619.105 1113.15 618.434 1115.72 617.39 1116.97 616.57 1119.1 615.079 1122.41 603 1122.41 603 1122.41 603 1127.85 604.417 1128 605.908Z" fill="#F47458" fill-rule="evenodd"/><path d="M1061.71 504.809C1061.71 504.809 1044.33 541.689 1044.17 548.183 1044.09 553.75 1047.21 584.831 1046.35 610.81 1046.35 611.737 1045.11 612.974 1043.39 613.748 1042.38 614.211 1037.78 616.454 1037.78 616.454 1037 618 1037 618 1037 618 1053.29 616.84 1053.29 616.84 1053.29 616.84 1053.68 613.129 1053.68 613.129 1053.68 613.129 1053.52 612.433 1053.52 612.433 1053.52 612.433 1053.52 612.433 1060.07 573.62 1059.37 562.642 1059.29 560.941 1058.44 550.58 1058.44 550.58 1078 513.082 1078 513.082 1078 513.082 1065.68 497 1065.68 497 1065.68 497L1061.71 504.809Z" fill="#F7A491" fill-rule="evenodd"/><path d="M1041 531.731C1074.78 483 1074.78 483 1074.78 483 1076.87 483.848 1078.88 484.619 1081.12 485.005 1085.91 485.93 1090.78 485.776 1095.73 485.622 1095.73 485.853 1095.73 486.007 1095.73 486.161 1096.27 490.171 1101.6 496.339 1102.76 508.522 1104 522.401 1103.23 546.381 1102.84 548 1080.35 545.301 1047.34 538.439 1041 531.731Z" fill="#13375B" fill-rule="evenodd"/><path d="M1084.85 417.609C1084.71 418.913 1083.98 420 1083.24 419.928 1082.51 419.783 1082 418.696 1082.15 417.319 1082.22 416.014 1082.95 415 1083.68 415.072 1084.49 415.145 1085 416.304 1084.85 417.609Z" fill="#F7A491" fill-rule="evenodd"/><path d="M1054.61 620C1032.95 620 1032.95 620 1032.95 620 1032.24 619.926 1032 619.042 1032.47 618.6 1033.1 618.01 1035.7 617.347 1038.38 616.168 1043.18 616.611 1053.66 613.958 1054.45 613 1054.84 614.99 1055 619.926 1054.61 620Z" fill="#F47458" fill-rule="evenodd"/><path d="M1033.39 444.821C1033.54 444.586 1033.77 444.821 1034.08 445.211 1033.7 443.572 1033.7 441.464 1034.01 441.308 1034.39 441.074 1034.63 443.962 1035.48 445.601 1036.33 447.162 1037.1 449.114 1037.26 449.036 1037.41 448.88 1036.25 446.772 1035.4 445.133 1034.55 443.494 1035.17 436 1036.02 441.386 1036.8 446.772 1041.91 450.831 1042.06 449.192 1042.22 447.553 1041.36 445.055 1042.37 445.445 1043.46 445.757 1043.77 449.426 1044.7 452.158 1044.77 452.392 1044.85 453.407 1044.85 454.5 1044.85 455.046 1045.16 455.593 1045.7 455.749 1059.18 460.745 1059.18 460.745 1059.18 460.745 1068.01 445.211 1068.01 445.211 1068.01 445.211 1078 447.397 1078 447.397 1078 447.397 1078 447.397 1070.02 468.395 1063.13 471.595 1060.03 473 1045.47 462.696 1039.74 457.857 1034.01 453.017 1033 445.992 1033.39 444.821Z" fill="#F7A491" fill-rule="evenodd"/><path d="M1072.63 436.046C1069.05 437.638 1060 458.103 1060 458.103 1071.7 465 1071.7 465 1071.7 465 1075.36 454.616 1075.36 454.616 1075.36 454.616 1075.36 454.616 1077 434 1072.63 436.046Z" fill="#F7CC7F" fill-rule="evenodd"/><path d="M1075.4 419.031C1073.7 414.718 1072 410.482 1073.93 405.245 1075.47 401.086 1078.87 398.313 1083.19 397.158 1095.24 394 1095.08 402.164 1112.6 400.47 1130.74 398.698 1138 418.338 1136.3 424.884 1128.27 456 1092.3 440.827 1087.44 435.667 1083.81 431.816 1076.48 421.727 1075.4 419.031Z" fill="#B75742" fill-rule="evenodd"/><path d="M1099.17 434.076C1099.17 434.076 1101.11 434 1106.44 436.345 1111.7 438.689 1123 453.966 1123 453.966 1113.79 461 1113.79 461 1113.79 461 1098.01 450.941 1098.01 450.941 1098.01 450.941 1098.01 450.941 1096 434.076 1099.17 434.076Z" fill="#F7CC7F" fill-rule="evenodd"/><path d="M1071.24 485.154C1076.74 488 1097.87 487.538 1097.87 487.538 1098.42 482.154 1101.25 467.692 1102.43 456.154 1104 448.077 1101.49 445.769 1099.76 433.692 1099.76 433.615 1091.19 433 1091.19 433 1082.31 433.231 1082.31 433.231 1082.31 433.231 1082.31 433.231 1074.61 433.846 1072.18 435.462 1072.02 435.538 1071 449.154 1071.79 458.769 1072.34 465.385 1073.04 470.692 1073.04 475.077 1072.96 481.385 1071.24 485.154 1071.24 485.154Z" fill="#FAE0B2" fill-rule="evenodd"/><path d="M1070.15 452.739C1070.38 457.947 1076.89 463 1086.12 463 1095.43 463 1103 458.724 1103 453.516 1103 448.307 1096.79 441 1087.48 441 1078.25 441 1070 446.131 1070.15 452.739Z" fill="#FAE0B2" fill-rule="evenodd"/><path d="M1089.52 420.237C1089.52 420.237 1089.68 421.552 1089.99 423.407 1090.53 426.655 1090.76 432.144 1091.46 433.768 1092 435.237 1086.96 449 1085.26 445.134 1082.32 438.407 1082.39 436.397 1082.24 434.619 1082.08 432.84 1081.62 426.809 1081.31 422.711 1081.15 420.546 1081 419 1081 419L1089.52 420.237Z" fill="#F7A491" fill-rule="evenodd"/><path d="M1081.31 422.481C1081.16 420.481 1081 419 1081 419 1089.53 420.185 1089.53 420.185 1089.53 420.185 1089.53 420.185 1089.77 421.37 1090 423.074 1086.51 425 1083.41 424.333 1081.31 422.481Z" fill="#F47458" fill-rule="evenodd"/><path d="M1086.15 401.08C1086.15 401.08 1089.46 401.852 1091.54 404.938 1093.54 408.101 1095 417.359 1088.23 421.68 1081.46 426 1076.15 419.905 1076.08 413.964 1076 407.947 1077.31 400 1086.15 401.08Z" fill="#F7A491" fill-rule="evenodd"/><path d="M1074.52 412.584C1075.11 414.065 1076.15 415 1076.96 414.61 1077.78 414.299 1078 412.818 1077.41 411.416 1076.89 409.935 1075.78 409 1074.96 409.39 1074.15 409.701 1074 411.182 1074.52 412.584Z" fill="#F7A491" fill-rule="evenodd"/><path d="M1085 401.077C1085 401.077 1089.34 410.569 1093.13 411.411 1097 412.254 1096.92 417 1096.92 417 1096.92 417 1096.84 406.053 1093.29 403.526 1089.66 401 1085 401.077 1085 401.077Z" fill="#B75742" fill-rule="evenodd"/><path d="M1092.39 413.444C1092 414.926 1092.32 416.407 1093.23 416.704 1094.13 417 1095.16 416.037 1095.55 414.556 1096 413.074 1095.61 411.667 1094.71 411.296 1093.87 411 1092.77 411.963 1092.39 413.444Z" fill="#F7A491" fill-rule="evenodd"/><path d="M1020.84 440 1027 430.455 1026.16 430 1020 439.545 1020.84 440Z" fill="#FFD09F" fill-rule="evenodd"/><path d="M1021.38 440 1027 430.278 1026.52 430 1021 439.722 1021.38 440Z" fill="#FFB769" fill-rule="evenodd"/><path d="M1024.95 442 1031 432.374 1030.05 432 1024 441.626 1024.95 442Z" fill="#FFD09F" fill-rule="evenodd"/><path d="M1025.66 442 1031 432.283 1030.34 432 1025 441.717 1025.66 442Z" fill="#FFB769" fill-rule="evenodd"/><path d="M1028.95 445 1035 434.509 1034.15 434 1028 444.491 1028.95 445Z" fill="#FFD09F" fill-rule="evenodd"/><path d="M1029.48 445 1035 434.311 1034.52 434 1029 444.689 1029.48 445Z" fill="#FFB769" fill-rule="evenodd"/><path d="M1099.68 505.567C1095.97 502.205 1093.65 495.326 1092.26 492.499 1092.26 492.499 1090.48 488.907 1085 488.754 1079.59 488.677 1073.49 485.468 1070.7 479.354 1068 473.163 1074.72 463.916 1074.72 463.916 1075.03 463.381 1075.03 463.381 1075.03 463.381 1075.03 463.381 1079.44 452.834 1086.16 451.917 1092.96 451 1098.91 454.439 1101.84 458.948 1104.78 463.457 1108.87 463.075 1108.87 463.075 1111.97 462.769 1119.15 461.088 1123.94 462.464 1128.5 463.763 1132.05 467.049 1134.22 471.176 1136.61 475.685 1137 481.799 1133.6 489.518 1133.37 489.977 1131.59 493.569 1130.97 494.562 1130.51 495.632 1128.27 499.071 1128.04 499.377 1123.17 506.332 1117.68 509.236 1112.58 509.618 1107.87 510 1103.16 508.701 1099.68 505.567Z" fill="#F47458" fill-rule="evenodd"/><path d="M1087.76 482.547C1092.16 485 1097.77 483.16 1100.35 478.408 1103 473.655 1101.56 467.906 1097.24 465.453 1092.84 463 1087.23 464.84 1084.65 469.516 1082 474.268 1083.44 480.094 1087.76 482.547Z" fill="#B75742" fill-rule="evenodd"/><path d="M1088.83 479.387C1091.73 481 1095.56 479.79 1097.28 476.565 1099 473.339 1098.06 469.306 1095.17 467.694 1092.27 466 1088.44 467.21 1086.72 470.516 1085 473.742 1085.94 477.694 1088.83 479.387Z" fill="#13375B" fill-rule="evenodd"/><path d="M1019.76 426C1016.13 427.916 1014 431.828 1014.24 435.979 1014.24 436.059 1014.24 436.059 1014.24 436.059 1031.37 444.681 1031.37 444.681 1031.37 444.681 1032.08 444.441 1034.53 445 1034.53 445 1038 438.773 1038 438.773 1038 438.773 1038 438.773 1036.18 436.937 1036.03 436.218 1019.76 426 1019.76 426 1019.76 426ZM1032.32 439.013C1022.84 433.185 1022.84 433.185 1022.84 433.185 1022.13 432.706 1021.89 431.668 1022.37 430.87 1022.37 430.87 1022.37 430.87 1022.37 430.87 1022.84 429.992 1023.87 429.752 1024.66 430.231 1034.13 436.059 1034.13 436.059 1034.13 436.059 1034.84 436.538 1035.08 437.576 1034.61 438.374 1034.61 438.374 1034.61 438.374 1034.61 438.374 1034.05 439.252 1033.11 439.492 1032.32 439.013ZM1019.76 435.66C1019.76 435.66 1019.76 435.66 1019.76 435.66 1020.16 434.782 1021.18 434.382 1021.97 434.782 1031.84 439.891 1031.84 439.891 1031.84 439.891 1032.63 440.29 1032.95 441.248 1032.55 442.126 1032.55 442.126 1032.55 442.126 1032.55 442.126 1032.08 443.004 1031.13 443.324 1030.34 442.924 1020.39 437.895 1020.39 437.895 1020.39 437.895 1019.61 437.496 1019.29 436.458 1019.76 435.66Z" fill="#FF7700" fill-rule="evenodd"/><path d="M1087.33 471.056C1086.39 472.601 1086.24 474.455 1086.71 476 1034 445.025 1034 445.025 1034 445.025 1037.43 439 1037.43 439 1037.43 439 1092 467.658 1092 467.658 1092 467.658 1090.13 467.967 1088.34 469.203 1087.33 471.056Z" fill="#184655" fill-rule="evenodd"/><path d="M1109.38 498 1122 475.935 1118.72 474 1106 496.161 1109.38 498Z" fill="#B75742" fill-rule="evenodd"/><path d="M1035.85 434.667C1035.85 434.667 1035.85 434.667 1035.85 434.667 1036 434.467 1035.85 434.2 1035.63 434.067 1033.8 433.133 1033.8 433.133 1033.8 433.133 1033.59 433 1033.29 433.067 1033.15 433.267 1033.15 433.333 1033.15 433.333 1033.15 433.333 1033 433.533 1033.07 433.8 1033.29 433.933 1035.12 434.867 1035.12 434.867 1035.12 434.867 1035.41 435 1035.71 434.933 1035.85 434.667Z" fill="#184655" fill-rule="evenodd"/><path d="M1031.85 432.733C1031.85 432.667 1031.85 432.667 1031.85 432.667 1032 432.467 1031.93 432.2 1031.71 432.067 1029.88 431.133 1029.88 431.133 1029.88 431.133 1029.59 431 1029.29 431.067 1029.15 431.333 1029.15 431.333 1029.15 431.333 1029.15 431.333 1029 431.533 1029.15 431.8 1029.37 431.933 1031.2 432.867 1031.2 432.867 1031.2 432.867 1031.41 433 1031.71 432.933 1031.85 432.733Z" fill="#184655" fill-rule="evenodd"/><path d="M1027.85 430.586C1027.85 430.586 1027.85 430.586 1027.85 430.586 1028 430.172 1027.93 429.759 1027.63 429.552 1025.8 428.103 1025.8 428.103 1025.8 428.103 1025.59 428 1025.29 428.103 1025.15 428.414 1025.15 428.414 1025.15 428.414 1025.15 428.414 1025 428.828 1025.07 429.241 1025.29 429.448 1027.12 430.897 1027.12 430.897 1027.12 430.897 1027.41 431 1027.71 430.897 1027.85 430.586Z" fill="#184655" fill-rule="evenodd"/><path d="M1021.85 440.667C1021.85 440.667 1021.85 440.667 1021.85 440.667 1022 440.4 1021.93 440.133 1021.71 440.067 1019.88 439.067 1019.88 439.067 1019.88 439.067 1019.59 439 1019.29 439.067 1019.15 439.267 1019.15 439.333 1019.15 439.333 1019.15 439.333 1019 439.533 1019.15 439.8 1019.37 439.933 1021.2 440.867 1021.2 440.867 1021.2 440.867 1021.41 441 1021.71 440.867 1021.85 440.667Z" fill="#184655" fill-rule="evenodd"/><path d="M1025.85 442.724C1025.85 442.724 1025.85 442.724 1025.85 442.724 1026 442.448 1025.93 442.172 1025.63 442.034 1023.8 441.069 1023.8 441.069 1023.8 441.069 1023.59 441 1023.29 441.069 1023.15 441.276 1023.15 441.276 1023.15 441.276 1023.15 441.276 1023 441.552 1023.07 441.828 1023.29 441.897 1025.2 442.931 1025.2 442.931 1025.2 442.931 1025.41 443 1025.71 442.931 1025.85 442.724Z" fill="#184655" fill-rule="evenodd"/><path d="M1029.85 445.586C1029.85 445.586 1029.85 445.586 1029.85 445.586 1030 445.172 1029.93 444.759 1029.63 444.552 1027.8 443.103 1027.8 443.103 1027.8 443.103 1027.59 443 1027.29 443.103 1027.15 443.414 1027.15 443.414 1027.15 443.414 1027.15 443.414 1027 443.828 1027.07 444.241 1027.29 444.345 1029.2 445.897 1029.2 445.897 1029.2 445.897 1029.41 446 1029.71 445.897 1029.85 445.586Z" fill="#184655" fill-rule="evenodd"/><path d="M1034 444.625 1037.32 439 1038 439.281 1034.68 445 1034 444.625Z" fill="#96D9C9" fill-rule="evenodd"/><path d="M1039 447.788 1042.79 441 1043 441.212 1039.32 448 1039 447.788Z" fill="#96D9C9" fill-rule="evenodd"/><path d="M1043 449.735 1046.59 444 1047 444.088 1043.21 450 1043 449.735Z" fill="#96D9C9" fill-rule="evenodd"/><path d="M1047 451.826 1050.71 446 1051 446.174 1047.39 452 1047 451.826Z" fill="#96D9C9" fill-rule="evenodd"/><path d="M1051 454.803 1054.8 448 1055 448.099 1051.29 455 1051 454.803Z" fill="#96D9C9" fill-rule="evenodd"/><path d="M1054 456.781 1057.71 449 1058 449.219 1054.29 457 1054 456.781Z" fill="#96D9C9" fill-rule="evenodd"/><path d="M1057 457.904 1060.72 451 1061 451.192 1057.19 458 1057 457.904Z" fill="#96D9C9" fill-rule="evenodd"/><path d="M1060 459.907 1063.73 453 1064 453.093 1060.27 460 1060 459.907Z" fill="#96D9C9" fill-rule="evenodd"/><path d="M1063 461.795 1066.82 454 1067 454.205 1063.27 462 1063 461.795Z" fill="#96D9C9" fill-rule="evenodd"/><path d="M1066 462.821 1069.74 456 1070 456.179 1066.26 463 1066 462.821Z" fill="#96D9C9" fill-rule="evenodd"/><path d="M1068 464.797 1072.57 457 1073 457.203 1068.32 465 1068 464.797Z" fill="#96D9C9" fill-rule="evenodd"/><path d="M1071 465.802 1074.66 458 1075 458.198 1071.17 466 1071 465.802Z" fill="#96D9C9" fill-rule="evenodd"/><path d="M1075 468.902 1079.69 461 1080 461.098 1075.41 469 1075 468.902Z" fill="#96D9C9" fill-rule="evenodd"/><path d="M1077 469.718 1081.59 462 1082 462.188 1077.31 470 1077 469.718Z" fill="#96D9C9" fill-rule="evenodd"/><path d="M1079 470.81 1083.69 463 1084 463.095 1079.31 471 1079 470.81Z" fill="#96D9C9" fill-rule="evenodd"/><path d="M1081 471.812 1084.84 464 1085 464.094 1081.24 472 1081 471.812Z" fill="#96D9C9" fill-rule="evenodd"/><path d="M1025.63 433 1026 432.583 1024.38 432 1024 432.417 1025.63 433Z" fill="#FFFFFF" fill-rule="evenodd"/><path d="M1022.92 437 1023 436.7 1022.15 436 1022 436.3 1022.92 437Z" fill="#FFFFFF" fill-rule="evenodd"/><path d="M1029.76 435 1030 434.667 1028.24 434 1028 434.333 1029.76 435Z" fill="#FFFFFF" fill-rule="evenodd"/><path d="M1026.8 440 1027 439.333 1026.13 438 1026 438.833 1026.8 440Z" fill="#FFFFFF" fill-rule="evenodd"/><path d="M1033.71 437 1034 436.636 1032.29 436 1032 436.364 1033.71 437Z" fill="#FFFFFF" fill-rule="evenodd"/><path d="M1030.92 442 1031 441.778 1030 441 1030 441.333 1030.92 442Z" fill="#FFFFFF" fill-rule="evenodd"/><path d="M1073 467.89 1076.74 459 1077 459.22 1073.17 468 1073 467.89Z" fill="#96D9C9" fill-rule="evenodd"/><path d="M1095.01 483.765C1095.01 483.84 1093.14 484.291 1091.42 484.743 1089.71 485.194 1086.83 485.269 1086.98 485.646 1087.06 485.947 1088.85 486.097 1090.41 486.022 1090.02 486.172 1089.87 486.323 1090.02 486.473 1090.96 487 1095.94 486.699 1100.54 484.818 1105.21 482.937 1132 468.716 1129.27 464.653 1128.26 463.223 1123.98 458.934 1121.56 456 1114.48 461.342 1114.48 461.342 1114.48 461.342 1118.14 465.104 1118.14 465.104 1118.14 465.104 1112.61 470.898 1104.12 477.068 1103.65 477.369 1102.48 478.197 1100.22 477.519 1099.68 477.519 1096.95 477.444 1093.29 477.369 1092.75 478.272 1092.12 479.175 1094.69 478.874 1096.25 479.325 1097.81 479.777 1092.67 483.765 1087.3 483.388 1082 483.087 1088 485.42 1089.79 484.968 1091.58 484.442 1094.93 483.539 1095.01 483.765Z" fill="#F7A491" fill-rule="evenodd"/><path d="M1059.07 460.745C1045.65 455.749 1045.65 455.749 1045.65 455.749 1045.11 455.593 1044.8 455.046 1044.8 454.5 1044.8 453.407 1044.72 452.392 1044.65 452.158 1043.72 449.426 1043.41 445.757 1042.33 445.445 1041.33 445.055 1042.18 447.553 1042.02 449.192 1041.87 450.831 1036.78 446.772 1036.01 441.386 1035.16 436 1034.54 443.494 1035.39 445.133 1036.24 446.772 1037.4 448.88 1037.24 449.036 1037.09 449.114 1036.32 447.162 1035.47 445.601 1034.62 443.962 1034.39 441.074 1034 441.308 1033.69 441.464 1033.69 443.572 1034.08 445.211 1033.77 444.821 1033.54 444.586 1033.39 444.821 1033 445.992 1034 453.017 1039.71 457.857 1045.42 462.696 1059.92 473 1063 471.595L1059.07 460.745Z" fill="#F7A491" fill-rule="evenodd"/><path d="M878.37 327.605C878.37 327.605 878.675 326.816 878.446 325 878.142 322.789 877.381 319.553 877.228 319.237 877 318.763 883.699 315.605 883.699 315.605 883.699 315.605 894.661 313.711 896.107 312.211 897.63 310.711 899 310 898.315 311.421 897.249 314.026 894.432 317.974 893.747 318.526 893.062 319.079 884.765 322.395 884.612 322.395 884.46 322.395 885.145 328 885.145 328L878.37 327.605Z" fill="#F7A491" fill-rule="evenodd"/><path d="M885.53 324.381C885.53 324.381 878.132 324 878.132 324.687 877.053 340.937 877.207 346.201 876.899 346.43 875.897 347.116 858.481 335.291 855.784 334.681 854.473 334.376 853.086 334.604 851.776 334.833 848.694 335.291 849.772 335.062 848.154 335.367 848.154 335.367 848.154 335.367 848.154 335.367 848.077 335.367 848 335.367 848 335.367 848.385 338.266 848.385 338.266 848.385 338.266 852.239 340.937 865.879 387.093 866.495 387.016 867.266 386.864 883.527 389 883.141 387.703 883.064 387.474 871.35 380.074 866.804 368.02 865.339 363.9 864.261 359.475 863.259 355.585 866.958 356.881 881.446 361.993 883.527 360.849 890 357.339 885.53 324.381 885.53 324.381Z" fill="#355389" fill-rule="evenodd"/><path d="M922 405.222C922 405.222 938.198 415.1 938.895 417.044 939.98 420 953 414.478 949.667 414.244 948.97 414.167 946.49 413.856 946.258 413.778 945.095 413.311 930.06 399 930.06 399L922 405.222Z" fill="#F7A491" fill-rule="evenodd"/><path d="M956.292 413.316C946.964 413.703 946.964 413.703 946.964 413.703 946.964 413.703 944.612 416.258 939.531 416.955 939.531 416.955 939 419.432 939.683 422.142 939.834 422.606 940.062 424 940.593 423.923 942.261 423.613 946.66 421.91 951.742 420.206 951.742 420.206 958.492 417.884 962.208 414.942 966 412 956.292 413.316 956.292 413.316Z" fill="#F7CC7F" fill-rule="evenodd"/><path d="M853.52 384.235C853.52 384.235 864.483 384.77 875.982 380.563 889.245 375.743 904.118 371 908.794 373.066 912.628 374.672 939 405.732 939 405.732 931.104 413 931.104 413 931.104 413 903.275 388.443 903.275 388.443 903.275 388.443 903.275 388.443 873.299 403.667 866.093 403.284 849.687 402.213 848 389.514 853.52 384.235Z" fill="#B75742" fill-rule="evenodd"/><path d="M863.818 376 876 387.584 856.996 396 853 384.317 863.818 376Z" fill="#B75742" fill-rule="evenodd"/><path d="M893 432C893 432 894.407 449.812 894.407 452.896 894.333 455.904 903 464 901.667 460.993 901.37 460.299 900.482 457.986 900.482 457.754 900.333 456.598 900.852 435.933 900.852 435.933L893 432Z" fill="#F7A491" fill-rule="evenodd"/><path d="M905.21 466.116C900.486 458.079 900.486 458.079 900.486 458.079 900.486 458.079 897.133 457.17 894.086 453 894.086 453 891.724 453.682 889.667 455.578 889.362 455.881 887 458.079 887.229 458.534 888.067 460.051 892.029 463.083 896.295 466.343 896.295 466.343 902.314 470.134 906.657 472.029 911 474 905.21 466.116 905.21 466.116Z" fill="#F7CC7F" fill-rule="evenodd"/><path d="M906.567 395C902.143 390.462 871.019 389.308 871.019 389.308 860.541 374 860.541 374 860.541 374 843 387.769 843 387.769 843 387.769 843 387.769 846.726 402.462 848.588 406.231 851.072 411.308 863.801 410.077 871.562 409.077 878.703 408.231 891.82 408.077 891.82 408.077 892.053 447.077 892.053 447.077 892.053 447.077 892.053 447.077 900.979 448 903.307 447.462 903.618 447.385 912 400.692 906.567 395Z" fill="#F47458" fill-rule="evenodd"/><path d="M847.771 335C837.169 336.867 837.169 336.867 837.169 336.867 837.169 336.867 836.935 337.023 836.857 337.023 836 337.256 840.521 368.301 842.704 379.816 844.808 391.332 846.991 396 846.991 396 846.991 396 861.178 391.721 865.388 389.464 867.18 388.531 871 382.462 871 382.462 871 382.462 865.699 376.86 862.192 367.134 859.541 359.742 855.722 346.36 854.163 343.636 850.499 337.49 847.771 335 847.771 335Z" fill="#96D9C9" fill-rule="evenodd"/><path d="M837 328.138C837.765 337.241 837.765 337.241 837.765 337.241 837.765 337.241 845.954 348 849.245 345.969 852 344.313 848.403 335.812 848.403 335.812 848.403 335.812 847.638 333.856 846.643 331.674 845.954 330.094 845.342 328.439 845.189 327.16 844.883 324 837 328.138 837 328.138Z" fill="#F7A491" fill-rule="evenodd"/><path d="M842.046 306C842.046 306 846.31 310.624 847.115 314.807 848 318.991 847.356 322 847.356 322 834 310.477 834 310.477 834 310.477L842.046 306Z" fill="#184655" fill-rule="evenodd"/><path d="M847.706 313.571C848 315.13 847.647 316.532 846.941 316.766 846.294 317 845.529 315.909 845.235 314.351 845 312.792 845.353 311.39 846 311.156 846.706 311 847.471 312.091 847.706 313.571Z" fill="#F48C7F" fill-rule="evenodd"/><path d="M831.3 313.132C831 313.055 832.577 325.862 836.557 328.469 840.538 331 846.846 330.54 848.348 327.242 850 323.638 846.47 310.371 840.763 308.224 835.055 306 831.3 313.132 831.3 313.132Z" fill="#F7A491" fill-rule="evenodd"/><path d="M828.857 304.725C826.286 307.642 825.117 309.691 823.714 314.5 822 320.333 827.377 325.536 831.662 327.349 835.87 329.162 836.571 332 836.571 332 836.494 330.187 836.494 330.187 836.494 330.187 836.571 328.847 836.026 328.059 835.558 327.349 835.169 326.64 833.766 324.275 833.221 323.644 831.896 321.989 831.662 321.673 832.052 319.939 832.286 318.599 831.429 315.84 831.896 313.633 837.117 311.82 837.117 311.82 837.117 311.82 837.117 311.82 840.39 310.637 841.792 308.43 846 302.124 835.636 297 828.857 304.725Z" fill="#184655" fill-rule="evenodd"/><path d="M834.068 321.08C835 322.52 835 324.04 834.153 324.52 833.305 325 831.864 324.28 831.017 322.92 830.085 321.48 830 319.96 830.932 319.48 831.78 319 833.136 319.72 834.068 321.08Z" fill="#F7A491" fill-rule="evenodd"/><path d="M793.277 289.653C794.234 292.043 795.83 295.821 795.83 295.821 795.91 296.977 796.069 301.449 796.388 307 804.367 302.837 804.367 302.837 804.367 302.837 804.367 302.837 803.17 293.893 803.41 293.277 803.729 292.814 804.287 293.277 806.441 289.499 807 288.342 806.92 286.492 806.92 286.492 806.92 286.492 806.84 284.256 806.282 284.102 805.723 283.948 805.165 284.333 805.005 284.796 804.926 285.181 805.085 286.107 804.926 286.492 804.766 286.878 803.649 287.494 803.09 287.571 802.612 287.571 802.372 280.864 802.372 280.864 802.372 280.864 802.372 278.936 802.452 278.32 802.532 277.78 802.851 276.238 802.851 276.238 802.851 276.238 803.17 273.925 802.372 273.848 801.973 273.771 801.096 275.698 800.617 277.703 800.059 279.862 799.899 282.098 799.66 282.098 799.101 282.098 798.941 278.474 798.941 278.474 798.941 278.474 799.261 276.701 799.181 275.93 799.58 274.927 799.66 273.077 798.782 273.077 798.622 273 797.745 275.467 797.745 275.467 797.745 275.467 797.426 277.086 797.266 277.857 796.947 279.245 797.186 281.327 797.027 282.252 796.947 283.023 796.707 282.791 796.628 282.791 796.548 282.868 796.548 281.789 796.468 280.324 796.468 279.553 796.309 278.705 796.388 277.857 796.468 277.086 796.468 276.007 796.388 275.313 796.309 273.385 795.112 273.771 794.952 275.544 794.872 276.161 794.793 276.932 794.713 277.703 794.394 280.556 794.713 283.254 794.394 283.331 793.995 283.408 793.676 278.474 793.676 278.474 793.676 278.474 792.718 275.776 792.399 278.397 792 281.404 792.399 283.794 792.399 283.948 792.559 284.642 792.399 287.263 793.277 289.653Z" fill="#F8A492" fill-rule="evenodd"/><path d="M837.641 337.209C837.641 337.209 827.192 337.984 824.349 337.054 822.582 336.512 807.907 327.213 807.907 327.213 804.603 298 804.603 298 804.603 298 795.076 298.465 795.076 298.465 795.076 298.465 795.076 298.465 794 331.32 796.075 334.652 798.303 338.061 819.662 350.692 824.349 356.736 827.115 360.223 835.26 407.413 836.028 407.801 841.406 409.816 860 414 859.462 412.373 843.942 368.902 837.641 337.209 837.641 337.209Z" fill="#355389" fill-rule="evenodd"/><path d="M882 319C882 319 884.714 317.476 885.467 317.185 886.221 316.823 888.558 316.097 888.558 316.097 888.558 316.097 891.95 311.96 892.854 311.742 893.834 311.524 891.121 316.097 891.121 316.097 889.99 317.476 889.99 317.476 889.99 317.476 889.99 317.476 891.874 315.444 892.251 315.153 892.628 314.863 895.342 310 896.171 310.218 897 310.435 895.191 313.847 894.362 315.589 893.457 317.403 888.709 319 888.709 319L882 319Z" fill="#F7A491" fill-rule="evenodd"/><path d="M891.153 310.689C891.076 310.611 883.916 302.6 870.135 297.778 850.502 290.778 816.857 298.4 806.925 276.544 805.077 272.656 805 269.544 805 269.467 805 269 805.693 269 805.693 269.467 805.693 269.467 805.693 269.467 805.693 269.467 805.693 269.467 805.847 272.5 807.541 276.311 817.319 297.7 850.656 290.078 870.365 297.078 880.22 300.578 888.381 306.489 891.692 310.144 892 310.533 891.461 311 891.153 310.689Z" fill="#86B1F2" fill-rule="evenodd"/><path d="M890.306 306.845C890.075 306.612 883.524 299.481 871.27 295.14 857.86 290.333 837.36 291.574 825.029 285.992 817.476 282.581 813.853 277.775 812.081 274.287 810.154 270.566 810.077 267.62 810 267.465 810 267 810.694 267 810.771 267.465 810.771 267.543 810.848 270.411 812.697 274.054 814.393 277.388 818.015 282.039 825.26 285.372 837.514 290.876 858.014 289.636 871.501 294.519 883.91 298.938 890.538 306.07 890.846 306.38 891 306.535 891 306.767 890.846 306.922 890.692 307 890.461 307 890.306 306.845Z" fill="#86B1F2" fill-rule="evenodd"/><path d="M890.156 302.618C887.238 299.49 881.251 295.064 873.114 292.241 860.217 287.586 842.791 287.739 831.737 283.161 823.984 279.88 820.069 275.301 818.226 272.02 816.23 268.434 816.077 265.61 816.077 265.534 816 265.076 816.691 265 816.768 265.458 816.768 265.458 816.768 265.458 816.768 265.458 816.768 265.534 816.921 268.281 818.84 271.715 820.683 274.92 824.444 279.345 832.044 282.55 837.571 284.839 844.787 285.908 852.387 287.052 859.526 288.197 866.972 289.265 873.344 291.554 881.558 294.454 887.699 298.956 890.616 302.161 891 302.466 890.463 303 890.156 302.618Z" fill="#86B1F2" fill-rule="evenodd"/><path d="M890.308 298.848C877.861 285.376 852.658 285.909 838.597 280.505 830.452 277.385 826.38 272.894 824.382 269.774 822.231 266.273 822.077 263.609 822.077 263.457 822 263 822.692 263 822.768 263.457 822.768 263.457 822.922 266.121 824.997 269.393 826.918 272.514 830.913 276.776 838.904 279.896 852.889 285.3 878.168 284.691 890.846 298.391 891 298.543 890.923 298.696 890.846 298.848 890.693 299 890.462 299 890.308 298.848Z" fill="#86B1F2" fill-rule="evenodd"/><path d="M836.258 271.45C836.258 271.45 836.258 271.45 836.258 271.45 835.07 270.241 833.566 266.839 832.695 264.722 831.507 262 831.586 262.529 831.191 262.302 830.161 262.151 831.032 262.832 823.273 277.801 820.106 273.869 811 274.852 811 279.464 811 281.883 813.692 284 817.255 284 819.71 283.924 821.927 282.866 822.877 281.203 822.877 281.203 822.877 281.203 822.877 281.203 823.114 280.749 826.519 274.247 829.29 268.955 830.24 272.433 834.516 275.003 837.208 273.265 838 272.811 838 272.811 838 272.811 837.208 272.282 837.208 272.282 837.208 272.282 836.891 272.131 836.337 271.45 836.258 271.45Z" fill="#466EB6" fill-rule="evenodd"/><path d="M884.047 286.018C884.047 286.018 884.047 286.018 884.047 286.018 882.696 285.637 880.067 283.585 878.49 282.368 876.838 281.076 876.613 281 876.237 281.152 875.336 281.456 876.237 281.836 877.289 296.661 873.158 295.064 867 299.626 869.103 303.199 871.356 307 878.791 304.111 878.715 299.398 878.715 299.398 878.715 299.398 878.715 299.398 878.64 298.942 878.19 291.415 877.889 286.246 880.217 288.45 884.423 289.591 885.625 287.158 886 286.322 886 286.322 886 286.322 884.949 286.246 885.399 286.398 884.047 286.018Z" fill="#466EB6" fill-rule="evenodd"/><path d="M861 286.199C860.922 285.588 860.457 278.711 859.914 270.306 850.914 271.223 851.224 271.299 842.922 270 843.233 274.355 843.543 278.711 843.776 282.226 839.431 280.545 834 285.588 836.172 289.179 838.5 293 845.716 288.95 845.638 284.289 845.638 284.289 845.172 280.468 844.707 274.508 858.75 274.585 858.75 274.585 858.75 274.585 858.905 276.495 859.06 280.086 859.293 283.678 854.948 282.073 848.897 286.429 851.069 290.02 852.233 292.007 855.336 292.389 857.974 290.86 859.836 289.791 861 287.957 861 286.199Z" fill="#466EB6" fill-rule="evenodd"/><path d="M1041.25 245.854C1041.25 245.854 1041.25 245.854 1041.25 245.854 1039.83 246.319 1036.36 246.087 1034.31 245.931 1032.1 245.854 1031.87 245.776 1031.63 246.164 1031 246.94 1031.08 246.94 1040.54 258.893 1035.97 259.901 1034.07 267.197 1038.01 269.06 1042.11 271 1047 264.248 1044.24 260.29 1044.24 260.29 1044.24 260.29 1044.24 260.29 1043.93 259.979 1039.83 254.701 1036.6 250.51 1039.91 251.054 1043.61 248.725 1043.3 245.931 1043.14 245 1043.14 245 1043.14 245 1042.19 245.543 1042.67 245.388 1041.25 245.854Z" fill="#50BFA5" fill-rule="evenodd"/><path d="M860.827 218.538C860.905 217.923 861.374 211 862 202.538 852.849 202.308 853.162 202.385 845.106 200 844.715 204.385 844.48 208.769 844.246 212.231 840.101 210.077 834 214.308 835.642 218.154 837.441 222.385 845.497 220.462 846.045 215.692 846.045 215.692 846.045 215.692 846.045 215.692 846.123 215.231 846.358 211.385 846.749 205.385 859.497 207.231 859.497 207.231 859.497 207.231 859.419 209.077 859.184 211.538 859.028 215.154 854.883 212.923 848.782 217.154 850.425 221.077 851.363 223.154 854.335 224 857.151 222.846 859.184 222 860.67 220.308 860.827 218.538Z" fill="#96D9C9" fill-rule="evenodd"/><path d="M698.941 269 703.586 272.563 709.021 269.938 713.962 274.344 718.904 269.938 724.635 274.625 729.774 271.156 736 274.813 734.616 277.063 729.774 274.25 724.536 278 718.904 273.594 713.962 278 708.527 273.219 703.191 275.656 698.941 272.375 695.779 274.625 694 272.656 698.941 269Z" fill="#9BC1F9" fill-rule="evenodd"/><path d="M1056 367.725C1056.07 368.175 1056.27 368.625 1056.41 369 1057.08 368.325 1058.03 367.8 1059.46 367.8 1059.66 367.275 1059.8 366.675 1060 366.075 1058.78 366 1057.08 366.225 1056 367.725Z" fill="#355389" fill-rule="evenodd"/><path d="M1059.25 375.914C1060.17 373.257 1061.08 370.429 1062 367.686 1061.83 367.6 1061.83 367.514 1061.83 367.514 1061.08 367.257 1061 367.257 1061 367.257 1060.5 367.086 1060.08 367 1060.08 367 1059.92 367 1059.83 367 1059.67 367 1058.75 370.086 1057.83 373.086 1057 375.829 1057.75 376 1058.5 376 1059.25 375.914Z" fill="#355389" fill-rule="evenodd"/><path d="M1053.7 386C1053.78 385.926 1052.51 387.926 1050.77 387.778 1050.77 387.778 1048.87 387.556 1049.9 385.778 1049.9 385.778 1049.98 385.63 1049.98 385.556 1050.06 385.259 1049.9 384.889 1049.58 384.741 1049.19 384.593 1048.79 384.815 1048.63 385.111 1048.47 385.259 1048.32 385.556 1048.24 386.074 1048 389.037 1051.8 390 1054.01 388.222 1055.44 387.037 1057.18 383.185 1059 378.296 1058.37 378.222 1057.65 378.148 1056.94 378 1055.6 382 1054.49 385.037 1053.7 386Z" fill="#355389" fill-rule="evenodd"/><path d="M1057.81 375C1057.49 375.909 1057.24 376.818 1057 377.636 1057.73 377.818 1058.46 377.909 1059.11 378 1059.43 377.091 1059.76 376.091 1060 375.091 1059.27 375.182 1058.54 375.182 1057.81 375Z" fill="#355389" fill-rule="evenodd"/><path d="M1060 365.556C1060.89 365.63 1061.61 365.778 1061.61 365.704 1061.88 365.778 1062.23 365.926 1062.5 366 1063.3 363.926 1064.2 361.852 1065 360 1063.84 360.296 1062.77 360.593 1061.79 360.889 1061.16 362.444 1060.54 364 1060 365.556Z" fill="#355389" fill-rule="evenodd"/><path d="M1063.18 357.889C1062.78 358.852 1062.39 359.889 1062 361 1062.86 360.704 1063.8 360.407 1064.82 360.111 1065.22 359 1065.61 357.963 1066 357 1065.06 357.296 1064.12 357.593 1063.18 357.889Z" fill="#355389" fill-rule="evenodd"/><path d="M1052.44 370.538C1052.28 369.538 1052.28 364.846 1061.83 361.231 1062.22 360.077 1062.61 359 1063 358 1061.91 358.308 1060.81 358.615 1059.72 358.923 1057.06 359.769 1054.32 360.846 1052.28 362.692 1049.63 365.077 1049 368.615 1049.78 371.923 1050.17 373.615 1051.11 375.308 1052.6 376.385 1053.69 377.231 1055.02 377.692 1056.35 378 1056.59 377.308 1056.82 376.538 1057.13 375.769 1054.87 375.385 1052.83 373.769 1052.44 370.538Z" fill="#355389" fill-rule="evenodd"/><path d="M1074.67 351.244C1074.34 348.807 1071.63 345 1068.34 347.589 1066.86 348.731 1064.97 352.69 1063 357.716 1063.99 357.411 1064.97 357.107 1065.96 356.802 1068.1 351.777 1069.9 348.503 1071.14 349.873 1071.88 350.635 1072.21 352.005 1071.63 353.376 1070.97 354.822 1069.25 355.584 1067.77 356.193 1067.11 356.421 1066.53 356.65 1065.96 356.802 1065.55 357.792 1065.14 358.858 1064.73 360 1065.14 359.848 1065.63 359.695 1066.12 359.619 1069.16 358.858 1072.29 357.03 1073.44 355.431 1073.44 355.431 1075 353.604 1074.67 351.244Z" fill="#355389" fill-rule="evenodd"/><path d="M1062.95 368.308C1062.88 368.231 1063.65 368.846 1064.04 369.615 1063.88 369.308 1065.2 371.154 1063.57 373.308 1062.8 374.385 1061.4 375.154 1059.85 375.308 1059.62 376.154 1059.31 377 1059 377.769 1059.16 377.769 1059.23 377.769 1059.39 377.769 1067.29 378 1069 368.385 1063.03 366 1062.8 366.615 1062.64 367.231 1062.41 367.923 1062.57 368 1062.8 368.154 1062.95 368.308Z" fill="#355389" fill-rule="evenodd"/><path d="M1060.67 366C1060.42 366.516 1060.25 367.032 1060 367.484 1060.17 367.484 1060.25 367.484 1060.42 367.484 1060.42 367.484 1060.83 367.548 1061.33 367.677 1061.33 367.677 1061.42 367.677 1062.17 367.871 1062.17 367.871 1062.17 367.935 1062.33 368 1062.58 367.419 1062.75 366.903 1063 366.387 1062.75 366.323 1062.42 366.194 1062.17 366.129 1062.17 366.194 1061.5 366.065 1060.67 366Z" fill="#355389" fill-rule="evenodd"/><path d="M1058.7 369.429C1058.41 370.971 1057.37 372 1056.48 371.829 1055.52 371.571 1055 370.114 1055.3 368.571 1055.59 367.029 1056.56 366 1057.52 366.257 1058.41 366.514 1059 367.971 1058.7 369.429Z" fill="#355389" fill-rule="evenodd"/><path d="M1051.7 386.429C1051.41 387.971 1050.44 389 1049.48 388.743 1048.52 388.486 1048 387.114 1048.3 385.571 1048.59 384.029 1049.63 383 1050.52 383.257 1051.48 383.429 1052 384.886 1051.7 386.429Z" fill="#355389" fill-rule="evenodd"/><path d="M673 560.192C673 524.808 673 524.808 673 524.808 673 489.036 701.783 460 737.415 460 772.585 460 772.585 460 772.585 460 808.14 460 837 489.036 837 524.808 837 560.192 837 560.192 837 560.192 837 596.042 808.14 625 772.585 625 737.415 625 737.415 625 737.415 625 701.783 625 673 596.042 673 560.192Z" fill="#D3172D" fill-rule="evenodd"/><path d="M712.157 432.772C712.312 426.369 710 363.653 725.796 313.973 736.66 280.108 748.68 265.451 763.011 253.571 763.705 253.108 764.321 252.568 765.015 252.028 765.708 251.565 766.325 251.025 767.018 250.562 767.249 250.408 766.248 251.102 769.021 249.174 816.023 216.466 911.181 215 951.171 264.294 965.734 282.036 975.442 310.656 979.68 333.413 987 373.064 984.92 416.341 983.918 459 964.655 459 964.655 459 964.655 459 961.188 406.003 966.89 339.43 942.387 290.599 941.463 288.748 941.463 288.748 941.463 288.748 940.384 287.513 927.362 255.731 885.292 240.457 832.204 222.56 777.651 248.557 759.39 296.848 742.67 339.661 744.288 389.881 744.288 432.772L712.157 432.772Z" fill="#F499A3" fill-rule="evenodd"/><rect x="698" y="400" width="59" height="85" fill="#F17B89"/><path d="M757 449.3C752.73 448.459 748.383 448 743.88 448 713.371 448 713.371 448 713.371 448 708.092 448 702.891 448.612 698 449.758 698 485 698 485 698 485 757 485 757 485 757 485L757 449.3Z" fill="#D3172D" fill-rule="evenodd"/><path d="M753.477 255.362C754.839 257.863 757.64 259 759.759 257.939 761.954 256.802 762.635 253.845 761.349 251.192 759.986 248.615 757.186 247.402 754.991 248.539 754.461 248.843 754.007 249.222 753.628 249.752 750.147 242.324 750.147 242.324 750.147 242.324 762.862 240.05 762.862 240.05 762.862 240.05 768.766 252.784 768.766 252.784 768.766 252.784 768.766 252.784 768.766 252.784 768.766 252.784 768.766 252.784 768.766 252.86 768.766 252.86 770.053 255.437 772.929 256.65 775.124 255.513 777.243 254.452 778 251.42 776.638 248.843 775.351 246.265 772.475 245.052 770.356 246.114 769.75 246.417 769.296 246.872 768.917 247.327 762.635 233.758 762.635 233.758 762.635 233.758 762.408 233.303 761.954 233 761.576 233.076 745.757 236.335 745.757 236.335 745.757 236.335 745.227 236.411 745 237.017 745.303 237.624 753.477 255.362 753.477 255.362 753.477 255.362Z" fill="#50BFA5" fill-rule="evenodd"/><path d="M656 562.825C656 522.175 656 522.175 656 522.175 656 487.874 683.706 460 717.801 460 745.199 460 745.199 460 745.199 460 779.371 460 807 487.874 807 522.175 807 562.825 807 562.825 807 562.825 807 597.203 779.371 625 745.199 625 717.801 625 717.801 625 717.801 625 683.706 625 656 597.203 656 562.825Z" fill="#F499A3" fill-rule="evenodd"/><path d="M679 544.428C679 526.572 679 526.572 679 526.572 679 508.561 693.575 494 711.602 494 729.398 494 729.398 494 729.398 494 747.425 494 762 508.561 762 526.572 762 544.428 762 544.428 762 544.428 762 562.362 747.425 577 729.398 577 711.602 577 711.602 577 711.602 577 693.575 577 679 562.362 679 544.428Z" fill="#D3172D" fill-rule="evenodd"/><path d="M664 544.428C664 526.572 664 526.572 664 526.572 664 508.561 678.638 494 696.648 494 714.428 494 714.428 494 714.428 494 732.439 494 747 508.561 747 526.572 747 544.428 747 544.428 747 544.428 747 562.362 732.439 577 714.428 577 696.648 577 696.648 577 696.648 577 678.638 577 664 562.362 664 544.428Z" fill="#F499A3" fill-rule="evenodd"/><path d="M1147.35 384.617C1148.31 387.221 1150.06 391.204 1150.06 391.204 1150.06 392.353 1150.3 397.179 1150.62 403 1159.13 398.557 1159.13 398.557 1159.13 398.557 1159.13 398.557 1157.78 389.136 1158.18 388.523 1158.42 387.987 1159.05 388.523 1161.28 384.464 1162 383.238 1161.92 381.323 1161.92 381.323 1161.92 381.323 1161.76 378.949 1161.2 378.796 1160.57 378.566 1160.01 379.026 1159.85 379.485 1159.69 379.868 1159.85 380.864 1159.69 381.323 1159.53 381.706 1158.34 382.396 1157.78 382.396 1157.22 382.472 1156.99 375.349 1156.99 375.349 1156.99 375.349 1157.06 373.357 1157.14 372.668 1157.14 372.055 1157.54 370.37 1157.54 370.37 1157.54 370.37 1157.86 367.996 1157.06 367.843 1156.59 367.843 1155.71 369.834 1155.15 371.979 1154.6 374.277 1154.36 376.651 1154.12 376.651 1153.56 376.651 1153.4 372.745 1153.4 372.745 1153.4 372.745 1153.72 370.906 1153.64 370.14 1154.04 368.991 1154.12 367.077 1153.16 367.077 1153.01 367 1152.05 369.604 1152.05 369.604 1152.05 369.604 1151.81 371.289 1151.57 372.132 1151.25 373.587 1151.49 375.809 1151.33 376.804 1151.17 377.647 1150.94 377.34 1150.86 377.417 1150.78 377.417 1150.78 376.268 1150.78 374.736 1150.7 373.97 1150.54 373.051 1150.62 372.208 1150.78 371.366 1150.7 370.14 1150.7 369.451 1150.62 367.46 1149.34 367.766 1149.1 369.681 1149.02 370.37 1148.95 371.136 1148.87 371.979 1148.47 375.043 1148.87 377.877 1148.55 377.953 1148.07 378.03 1147.75 372.745 1147.75 372.745 1147.75 372.745 1146.72 369.911 1146.4 372.668 1146 375.885 1146.4 378.413 1146.4 378.566 1146.56 379.332 1146.32 382.089 1147.35 384.617Z" fill="#F8A492" fill-rule="evenodd"/><path d="M1199.63 413.241C1199.63 413.241 1195.46 409 1192.15 414.166 1192.15 414.166 1189.55 412.778 1187.74 415.246 1187.74 415.246 1183.1 413.935 1181.99 420.72 1181.99 420.72 1179.63 420.258 1179.32 423.034 1179 425.81 1180.42 427.66 1180.42 427.66 1180.42 427.66 1179.08 428.663 1179.71 431.207 1180.18 433.366 1182.07 433.675 1182.07 433.675 1182.07 433.675 1182.54 437.376 1184.2 438.455 1185.77 439.612 1187.98 439.072 1187.98 439.072 1187.98 439.072 1188.61 441 1190.5 440.846 1192.39 440.692 1194.67 438.918 1196.8 439.689 1198.93 440.537 1204.44 439.689 1204.44 439.689 1204.44 439.689 1210.58 436.99 1208.77 430.822 1208.77 430.822 1212 427.969 1209.16 424.499 1209.16 424.499 1211.21 419.101 1207.12 415.94 1203.02 412.778 1199.63 413.241 1199.63 413.241Z" fill="#07345A" fill-rule="evenodd"/><path d="M1234.44 379C1235 387.145 1235 387.145 1235 387.145 1233.09 400.924 1233.09 400.924 1233.09 400.924 1224.99 401 1224.99 401 1224.99 401 1224.99 401 1226.81 392.246 1225.54 390.19 1224.59 388.592 1223.4 386.08 1223.32 385.166 1223 382.045 1234.44 379 1234.44 379Z" fill="#F7A491" fill-rule="evenodd"/><path d="M1224 383.19C1227.42 389.248 1227.42 389.248 1227.42 389.248 1228.46 391 1230.77 390.927 1231.65 389.102 1233 385.599 1233 385.599 1233 385.599 1233 385.599 1227.19 381 1224 383.19Z" fill="#F47458" fill-rule="evenodd"/><path d="M1200.09 370.766C1216.94 372.445 1216.94 372.445 1216.94 372.445 1217.79 372.521 1218.57 373.056 1218.95 373.743 1227.07 388.168 1227.07 388.168 1227.07 388.168 1228.07 390 1230.86 389.924 1231.71 388.016 1238.59 372.979 1238.59 372.979 1238.59 372.979 1238.97 372.216 1239.67 371.682 1240.52 371.529 1257.14 368.476 1257.14 368.476 1257.14 368.476 1259.3 368.094 1260 365.499 1258.38 364.125 1245.78 353.135 1245.78 353.135 1245.78 353.135 1245.16 352.6 1244.85 351.761 1245 350.921 1247.17 334.587 1247.17 334.587 1247.17 334.587 1247.4 332.527 1245.08 331 1243.23 332.069 1228.62 340.312 1228.62 340.312 1228.62 340.312 1227.84 340.77 1226.92 340.77 1226.14 340.388 1210.91 333.366 1210.91 333.366 1210.91 333.366 1208.9 332.45 1206.74 334.129 1207.2 336.19 1210.76 352.295 1210.76 352.295 1210.76 352.295 1210.91 353.058 1210.68 353.898 1210.06 354.508 1198.47 366.492 1198.47 366.492 1198.47 366.492 1197 368.018 1197.93 370.537 1200.09 370.766Z" fill="#F7CC7F" fill-rule="evenodd"/><path d="M1171.58 593C1171.58 593 1167.22 598.32 1166.15 598.911 1165 599.576 1166.61 607.187 1169.59 607.704 1171.27 608 1172.11 605.709 1172.11 605.709 1171.73 604.01 1171.73 604.01 1171.73 604.01 1178 597.803 1178 597.803 1178 597.803L1171.58 593Z" fill="#F7A491" fill-rule="evenodd"/><path d="M1194.38 594C1194.38 594 1190.89 600.209 1189.95 601.005 1189 601.881 1191.47 609.841 1194.31 609.92 1195.91 610 1196.42 607.532 1196.42 607.532 1195.84 605.701 1195.84 605.701 1195.84 605.701 1201 598.219 1201 598.219 1201 598.219L1194.38 594Z" fill="#F7A491" fill-rule="evenodd"/><path d="M1189.62 601C1189.62 601 1191.74 603.682 1192.91 604.755 1194.48 606.135 1196.36 607.515 1196.36 607.515 1196.36 607.515 1198.55 611.423 1199.18 612.726 1200.51 615.792 1202 619.164 1201.76 620.85 1201.76 621.387 1200.51 622 1199.41 621.693 1195.1 620.391 1183.98 610.427 1182.57 607.745 1181 604.679 1189.62 601 1189.62 601Z" fill="#07345A" fill-rule="evenodd"/><path d="M1221.28 509.097C1220.89 508.013 1220.5 506.929 1220.11 506 1215.54 507.006 1210.43 508.09 1205.09 509.174 1204.47 528.606 1204.47 528.606 1204.47 528.606 1204.47 527.135 1208.42 559.574 1208.42 559.574 1208.42 559.574 1199.05 582.181 1192 595.419 1194.94 599.058 1195.72 599.523 1199.9 602 1210.82 588.916 1224.76 565.845 1225.38 561.819 1225.69 559.574 1226 522.49 1221.28 509.097Z" fill="#3C8F7C" fill-rule="evenodd"/><path d="M1180.31 514.557C1181.71 529.607 1184.83 558.473 1184.59 560.789 1183.81 563.644 1170.49 590.349 1168 594.208 1170.03 597.218 1172.91 599.997 1176.18 600.846 1176.88 601 1199.31 569.201 1200.56 566.654 1201.96 563.721 1204.3 547.899 1204.38 528.372 1205 509 1205 509 1205 509 1196.12 510.93 1187.94 512.705 1180.31 514.557Z" fill="#50BFA5" fill-rule="evenodd"/><path d="M1209.18 446C1198.71 447.402 1198.71 447.402 1198.71 447.402 1198.71 447.402 1190.41 447.636 1189.4 447.636 1188.32 447.636 1181.8 485.726 1179.94 500.059 1178 514.469 1179.47 516.962 1179.47 516.962 1179.47 516.962 1192.66 520 1202.44 519.065 1212.6 518.208 1224 512.678 1224 512.678 1224 512.678 1215.85 485.726 1214.15 477.158 1212.36 468.512 1209.18 446 1209.18 446Z" fill="#F47458" fill-rule="evenodd"/><path d="M1234.32 401.005C1234.32 401.005 1235 429.156 1233.94 431.238 1232.42 434.4 1215.38 456.612 1215.38 456.612 1215.38 456.612 1223.48 491.395 1226.89 503.349 1227.27 504.583 1228.79 512.373 1228.79 513.144 1228.79 514.841 1221.59 517 1220.76 516.846 1220 516.692 1213.64 483.682 1209.62 467.486 1208.26 462.01 1205.98 456.843 1202.73 452.216 1200 448.205 1200 448.205 1200 448.205 1221.44 426.302 1221.44 426.302 1221.44 426.302 1221.44 426.302 1224.09 401.931 1224.09 399.925 1224.09 399.386 1233.26 399 1234.32 401.005Z" fill="#466EB6" fill-rule="evenodd"/><path d="M1189.77 447.926C1162.62 420.12 1162.62 420.12 1162.62 420.12 1162.62 420.12 1158.85 393.858 1158.62 392.854 1158.31 391.927 1151.62 391.386 1148.85 391.077 1148 391 1149.31 419.116 1150.62 423.827 1152.15 429.389 1172.69 454.723 1172.69 454.723 1172.69 454.723 1176.38 468.395 1175.46 478.436 1174 495.198 1170 518.138 1170.77 518.91 1175.15 521.691 1192.08 522 1193.15 520.223 1205 501.068 1189.77 447.926 1189.77 447.926Z" fill="#466EB6" fill-rule="evenodd"/><path d="M1198.63 442.642C1199.32 448.043 1199.32 448.043 1199.32 448.043 1199.32 448.043 1201 455.914 1198.86 457.457 1196.8 459 1190 447.889 1190 447.889 1190.69 434 1190.69 434 1190.69 434L1198.63 442.642Z" fill="#F7A491" fill-rule="evenodd"/><path d="M1191 438.459C1192.6 443.07 1196.36 445.866 1199 447 1198.44 442.465 1198.44 442.465 1198.44 442.465 1191.21 434 1191.21 434 1191.21 434L1191 438.459Z" fill="#F47458" fill-rule="evenodd"/><path d="M1180 425C1180 422.791 1181.12 421 1182.5 421 1183.88 421 1185 422.791 1185 425 1185 427.209 1183.88 429 1182.5 429 1181.12 429 1180 427.209 1180 425Z" fill="#07345A" fill-rule="evenodd"/><path d="M1188 416.5C1188 415.119 1189.34 414 1191 414 1192.66 414 1194 415.119 1194 416.5 1194 417.881 1192.66 419 1191 419 1189.34 419 1188 417.881 1188 416.5Z" fill="#07345A" fill-rule="evenodd"/><path d="M1195.45 419.474C1199.89 418 1204.57 420.871 1205.29 425.371 1205.6 427.31 1205.84 429.716 1205.92 432.353 1206 438.793 1202.59 445 1199.66 445 1196.64 445 1188.48 440.888 1188.16 431.81 1188 426.147 1190.85 421.026 1195.45 419.474Z" fill="#F7A491" fill-rule="evenodd"/><path d="M1187 432.5C1187 431.119 1187.9 430 1189 430 1190.1 430 1191 431.119 1191 432.5 1191 433.881 1190.1 435 1189 435 1187.9 435 1187 433.881 1187 432.5Z" fill="#F7A491" fill-rule="evenodd"/><path d="M1208.04 416.679C1210.93 419.121 1212 422.824 1210.33 424.873 1208.65 427 1204.92 426.764 1201.96 424.321 1198.99 421.958 1198 418.255 1199.67 416.127 1201.35 414 1205.08 414.315 1208.04 416.679Z" fill="#07345A" fill-rule="evenodd"/><path d="M1195 418C1195 416.895 1196.12 416 1197.5 416 1198.88 416 1200 416.895 1200 418 1200 419.105 1198.88 420 1197.5 420 1196.12 420 1195 419.105 1195 418Z" fill="#07345A" fill-rule="evenodd"/><path d="M1204 426.5C1204 425.119 1205.12 424 1206.5 424 1207.88 424 1209 425.119 1209 426.5 1209 427.881 1207.88 429 1206.5 429 1205.12 429 1204 427.881 1204 426.5Z" fill="#07345A" fill-rule="evenodd"/><path d="M1226.05 387C1227.49 384.667 1227.49 384.667 1227.49 384.667 1227.49 384.667 1230 382.411 1229.32 381.478 1228.25 380 1224.46 383.656 1224.46 383.656 1224.46 383.656 1224 386.922 1226.05 387Z" fill="#F7A491" fill-rule="evenodd"/><path d="M1235.3 387C1235.3 387 1236 381.542 1235.84 381.393 1235.06 380.495 1232.72 379 1231.86 379.374 1231 379.673 1232.95 382.589 1232.95 382.589 1232.95 382.589 1231.7 382.813 1231.47 383.86 1231.23 384.907 1235.3 387 1235.3 387Z" fill="#F7A491" fill-rule="evenodd"/><path d="M1166.03 599C1166.03 599 1167.83 601.913 1168.86 603.14 1170.19 604.673 1171.92 606.207 1171.92 606.207 1171.92 606.207 1173.57 610.347 1174.04 611.803 1174.98 614.947 1176 618.78 1175.53 620.467 1175.45 621.003 1174.19 622 1173.25 621.387 1169.4 618.933 1159.2 607.587 1158.18 604.827 1157 601.53 1166.03 599 1166.03 599Z" fill="#07345A" fill-rule="evenodd"/><path d="M-248 689.5C-248 548.391-133.609 434 7.5 434 148.609 434 263 548.391 263 689.5 263 830.609 148.609 945 7.5 945-133.609 945-248 830.609-248 689.5Z" fill="#FEE2DC" fill-rule="evenodd"/></g></svg>